<svg xmlns="http://www.w3.org/2000/svg" width="308" height="370" fill="none" xmlns:v="https://vecta.io/nano"><g fill="#000"><path d="M160.525 212.977l-2.212 2.48a1.48 1.48 0 0 0 .675.409h.343c.265-.003.524-.075.753-.209a1.52 1.52 0 0 0 .552-.555c.204-.324.305-.704.29-1.087a1.89 1.89 0 0 0-.379-1.06l-.022.022zm-36.841-29.047a22.46 22.46 0 0 0-13.394 8.214c-1.102-.915-2.406-1.556-3.804-1.87a9.06 9.06 0 0 0-4.238.065 9.07 9.07 0 0 0-6.181 5.458 12.15 12.15 0 0 0-8.034.39 12.17 12.17 0 0 0-6.035 5.322c-.166.332-.194.716-.078 1.068a1.41 1.41 0 0 0 .697.814 1.4 1.4 0 0 0 .522.149 1.39 1.39 0 0 0 .539-.063c.174-.057.335-.148.473-.267s.252-.265.334-.428a9.17 9.17 0 0 1 5.166-4.255c2.196-.716 4.581-.576 6.679.391.193.101.407.154.625.154s.432-.053.625-.154a1.38 1.38 0 0 0 .752-.996 6.3 6.3 0 0 1 1.612-3.13c.824-.869 1.878-1.484 3.039-1.775a6.29 6.29 0 0 1 3.516.135c1.135.379 2.139 1.073 2.894 2.003.129.168.297.303.49.394s.403.133.616.126c.219-.011.433-.073.625-.18a1.44 1.44 0 0 0 .481-.44c2.929-4.345 7.451-7.36 12.586-8.391 3.365-.612 6.836-.187 9.954 1.218a11.82 11.82 0 0 1 2.422 1.439l1.239-1.572.52-.642a14.35 14.35 0 0 0-2.378-1.495 19.54 19.54 0 0 0-12.332-1.693m114.949 28.892a1.41 1.41 0 0 1-.24.49c-.111.145-.25.268-.409.36a1.41 1.41 0 0 1-.516.176c-.182.024-.366.012-.544-.035a1.39 1.39 0 0 1-.489-.241c-.145-.111-.267-.25-.359-.409s-.152-.334-.176-.516-.013-.367.035-.544c.796-3-1.527-6.642-4.867-7.694-1.93-.54-3.981-.459-5.862.232a12.87 12.87 0 0 0-4.18 2.358c-.147.144-.331.243-.531.288l2.82-4.926c1.238-.527 2.546-.873 3.882-1.029a11.62 11.62 0 0 1 4.679.398c4.789 1.461 7.952 6.642 6.757 11.07"/><path d="M282.584 298.558c-.182.093-.382.142-.586.144a1.41 1.41 0 0 1-.752-.221c-.226-.143-.406-.346-.52-.587-.079-.166-.124-.345-.133-.529a1.41 1.41 0 0 1 .079-.539 1.4 1.4 0 0 1 .28-.467c.123-.136.272-.247.437-.325 2.113-.985 2.5-4.184 1.682-6.719-.375-1.261-1.006-2.431-1.852-3.436a9.55 9.55 0 0 0-3.07-2.409c-1.116-.511-2.357-.685-3.571-.502s-2.347.715-3.264 1.531a1.43 1.43 0 0 1-.922.405c-.346.018-.686-.09-.958-.305a1.39 1.39 0 0 1-.5-.869 1.4 1.4 0 0 1 .212-.98c.863-1.361 2.212-3.996 1.427-6.398-.082-.236-.181-.466-.299-.686-.475-.876-1.193-1.595-2.068-2.07l2.522-1.694c.776.602 1.423 1.355 1.902 2.214.261.448.472.923.63 1.417a8.61 8.61 0 0 1 0 4.882c2.015-.478 4.131-.288 6.028.542a12.17 12.17 0 0 1 4.022 3.072c1.111 1.295 1.938 2.809 2.426 4.444 1.195 3.642.487 8.425-3.141 10.129m-38.279-145.214a21.62 21.62 0 0 1-2.588.775 45.62 45.62 0 0 1-2.411 19.394c-1.969 5.978-6.89 13.915-11.657 21.564l-4.424 7.229c0 .078-.089.144-.133.233l-2.677 4.693-.895 1.727a28.96 28.96 0 0 0-2.555 10.959c-.056.908-.067 1.849 0 2.779l2.776.166v-2.779c.109-3.411.891-6.767 2.3-9.874.863-1.738 1.925-3.631 3.097-5.624l1.217-2.047.774-1.262 2.909-4.716c4.855-7.749 9.865-15.863 11.933-22.14a49.33 49.33 0 0 0 2.345-21.033l-.011-.044zm-75.009-15.542c-.096.738-.206 1.476-.332 2.214.006.063.006.126 0 .188-.099.487-.177.963-.298 1.428-.589 2.663-1.445 5.259-2.555 7.749l-.631 1.384-.287.631c-2.175 4.631-5.076 8.884-8.594 12.597-1.615 1.727-3.417 3.321-5.154 4.938-1.106.985-2.212 1.959-3.218 2.966-4.353 4.307-8.417 8.896-12.166 13.738-.111.122-.222.266-.321.387-.509.62-.996 1.251-1.482 1.882-2.334 2.967-4.645 5.989-6.835 9.089-7.012 9.874-12.952 20.468-15.661 32.036a51.98 51.98 0 0 0-.62 2.977l2.975-.664a67.27 67.27 0 0 1 .686-2.989c2.422-9.398 7.068-18.154 12.62-26.434 2.886-4.318 6.038-8.502 9.257-12.576l1.239-1.572.519-.642c3.623-4.647 7.543-9.055 11.735-13.195 1.029-.996 2.091-1.959 3.152-2.922 1.781-1.628 3.628-3.321 5.32-5.081a50.2 50.2 0 0 0 8.516-12.177 51.76 51.76 0 0 0 4.668-13.981 20.49 20.49 0 0 0 .221-1.229l.221-1.561-2.975.819zm25.438 42.209a1.39 1.39 0 0 0-.84-.276 1.41 1.41 0 0 0-.83.321c-.741.609-1.504 1.251-2.278 1.937-6.061 5.324-13.483 12.863-20.727 20.59l-9.511 10.383-2.212 2.48-6.039 6.797-2.798 3.199 4.18-.531 2.776-3.155c5.143-5.823 11.293-12.62 17.453-19.173 5.652-5.967 11.326-11.712 16.291-16.273l-1.471 3.188a83.06 83.06 0 0 0-5.22 13.085c-1.29 4.425-1.409 9.109-.343 13.594.21.896.454 2.125.697 3.509l.476 2.789c.94 0 1.88-.077 2.831-.099l-.487-2.779c-.287-1.605-.553-3.022-.796-4.074a24.24 24.24 0 0 1 .509-12.94 88.9 88.9 0 0 1 4.866-11.911c1.206-2.569 2.433-5.236 3.661-8.181.122-.266.232-.553.343-.819.122-.289.142-.61.058-.912a1.39 1.39 0 0 0-.523-.749h-.066zm.066 0c-.242-.181-.537-.278-.84-.276a1.41 1.41 0 0 0-.83.321c-.741.609-1.504 1.251-2.278 1.937-6.061 5.324-13.482 12.863-20.727 20.59l-9.511 10.383-2.212 2.48-6.039 6.797-2.798 3.199 4.181-.531 2.776-3.155c5.143-5.823 11.292-12.62 17.452-19.173 5.652-5.967 11.326-11.712 16.292-16.273l-1.471 3.188a83.06 83.06 0 0 0-5.221 13.085c-1.29 4.425-1.408 9.109-.342 13.594.21.896.453 2.125.696 3.509l2.821-.089c-.288-1.605-.553-3.022-.797-4.074a24.24 24.24 0 0 1 .509-12.94c1.333-4.083 2.959-8.064 4.867-11.911 1.205-2.569 2.433-5.236 3.66-8.181.122-.266.233-.553.343-.819.122-.289.142-.61.058-.912a1.38 1.38 0 0 0-.522-.749"/><path d="M230.889 154.473l-2.677 2.557c-9.954 9.542-23.613 22.627-34.286 22.704-4.656 0-7.908-4.892-12.409-11.667l-5.132-7.428c-1.405-1.904-5.74-7.151-7.897-9.697a24.53 24.53 0 0 1 .664-1.428c1.15-2.181 1.899-4.55 2.212-6.996 1.106 0 2.931.155 4.944.287 7.852.476 21.699 1.362 35.392 1.207 1.393 0 2.798 0 4.18-.066.952 0 1.881-.056 2.821-.1a1.81 1.81 0 0 1 0-1.207l.586-1.616c-.995.056-2.002.078-3.019.122l-7.433.1h-3.439-1.339c-10.938-.155-21.257-.809-27.65-1.196l-4.667-.266c-1.947-.077-2.599 0-2.854.432a1.59 1.59 0 0 0-.21.786c0 .221-.055.443-.088.642-.247 2.329-.95 4.586-2.068 6.642-.155.321-.321.675-.487 1.107l-.575 1.218c0 .055 0 .11-.056.166-.068.228-.079.471-.03.704a1.43 1.43 0 0 0 .307.635c.365.399.841.974 1.394 1.638 2.278 2.702 5.762 6.941 6.956 8.58 1.892 2.557 3.573 5.07 5.055 7.317 3.959 5.878 7.277 10.738 11.701 12.343a9.02 9.02 0 0 0 3.108.531h.078.929c11.557-.731 24.674-13.284 35.259-23.446l4.424-4.162c-1.222-.037-2.439-.174-3.639-.41"/><path d="M228.755 144.411l1.858.055c.63.055 1.227.066 1.592.055a2.79 2.79 0 0 1 0-.409l-3.45.299zm46.905-37.084a3.59 3.59 0 0 0-1.427-1.117c-.564-.245-1.18-.34-1.791-.278l-40.922 4.151c-1.232.143-2.401.623-3.377 1.389a6.73 6.73 0 0 0-2.153 2.95l-5.187 14.314-.343.952-3.13 8.634-1.029 2.867-.199.532c-.263.725-.342 1.505-.232 2.269a4.78 4.78 0 0 0 .929 2.214c.077.077.133.166.199.232a4.64 4.64 0 0 0 3.506 1.594h.299c-.041-.404.008-.812.143-1.195a.74.74 0 0 1 .056-.144c.212-.547.601-1.007 1.106-1.306a3.85 3.85 0 0 1 .752-.421l-.631.055-1.559.155a1.86 1.86 0 0 1-.937-.143 1.85 1.85 0 0 1-.744-.587c-.137-.182-.245-.383-.321-.598-.137-.39-.137-.816 0-1.207l.586-1.616 3.595-9.963 5.685-15.73c.253-.672.686-1.26 1.252-1.702s1.242-.718 1.955-.8l12.166-1.228 28.756-2.912h.077c.123-.002.244.024.353.078a.77.77 0 0 1 .278.232.82.82 0 0 1 .168.376.83.83 0 0 1-.035.41l-.675 1.816-10.054 27.32c-.251.672-.686 1.259-1.255 1.696s-1.249.704-1.963.772l-7.963.775c.012.945-.051 1.889-.188 2.823l8.438-.808a6.63 6.63 0 0 0 3.377-1.358 6.64 6.64 0 0 0 2.153-2.937l10.397-28.283.31-.853a3.56 3.56 0 0 0-.531-3.454l.11.034zm-46.905 37.084l1.858.055c.63.055 1.227.066 1.592.055a2.79 2.79 0 0 1 0-.409l-3.45.299z"/><path d="M239.251 111.644c-.282.001-.557-.082-.79-.24a1.39 1.39 0 0 1-.515-.646 92.12 92.12 0 0 0-10.441-19.361c-2.411-3.409-5.42-7.096-9.501-8.601a24.62 24.62 0 0 0-8.372-1.029c-1.471 0-2.986 0-4.479-.166a9 9 0 0 1-4.712-1.539c-2.732-2.092-2.865-5.336-2.931-7.439-.007-.184.022-.368.086-.541a1.39 1.39 0 0 1 .287-.466c.125-.135.276-.243.444-.32a1.38 1.38 0 0 1 .532-.124c.73-.066 1.416-.1 1.438.675.078 2.28.299 4.804 1.847 5.989a6.3 6.3 0 0 0 3.318.974c1.383.122 2.843.144 4.258.155a27.55 27.55 0 0 1 9.302 1.195c4.8 1.771 8.173 5.867 10.817 9.62a94.88 94.88 0 0 1 10.761 19.926 1.41 1.41 0 0 1 .087.666c-.026.226-.106.442-.233.63a1.4 1.4 0 0 1-.498.451c-.2.108-.423.165-.65.168m-17.785 21.731a5.76 5.76 0 0 1-.852 2.588 5.75 5.75 0 0 1-1.946 1.906c-.442.249-.933.399-1.439.441a3.54 3.54 0 0 1-1.492-.197s0 .088-.077.133c-.55.927-1.389 1.646-2.389 2.047s-2.105.459-3.141.166c-.1-.021-.196-.054-.288-.099-.376.47-.852.85-1.393 1.113a4.02 4.02 0 0 1-1.737.403c-1.09.051-2.168-.239-3.086-.83a6.02 6.02 0 0 1-1.327-1.107c-.877-1.013-1.573-2.17-2.057-3.42l-.254-.576a11.22 11.22 0 0 0-1.858-3.321 11.2 11.2 0 0 0-4.701-2.336c-8.848-1.273-11.812 1.107-15.816 4.351-3.561 2.9-8.007 6.509-17.895 7.893a11.16 11.16 0 0 1-1.703.121c-7.267 0-13.56-6.531-16.756-13.45-3.042-6.641-5.84-17.645-7.432-25.748-2.489-12.675.707-22.372 9.036-27.287 1.714-1.007 4.977-1.605 8.737-2.28 4.192-.775 9.954-1.804 11.005-3.321a33.28 33.28 0 0 0 5.64-17.07l-13.272.565c-.37.012-.731-.123-1.002-.376a1.4 1.4 0 0 1-.446-.974c0-.576-.609-14.003.287-18.022 1.991-8.945 5.818-12.177 9.832-13.516-3.373-1.66-6.525-.72-9.777 1.162a1.39 1.39 0 0 1-.8.173c-.278-.024-.542-.13-.759-.306a1.36 1.36 0 0 1-.472-.679c-.083-.27-.081-.559.007-.827 2.544-8.203 8.472-15.985 17.21-18.763C178.166-.958 187.567-.582 194.9 2.95a28.15 28.15 0 0 1 11.613 9.686c3.041 4.672 4.103 11.568 2.533 16.383a1.4 1.4 0 0 1-.69.814 1.39 1.39 0 0 1-1.539-.176c-.14-.119-.254-.263-.338-.426a1.39 1.39 0 0 1-.15-.523c-.015-.183.006-.366.062-.541 1.294-4.029.343-10.04-2.212-14.003a25.44 25.44 0 0 0-10.474-8.69c-6.702-3.221-15.351-3.542-23.746-.886-3.295 1.024-6.349 2.705-8.978 4.943a25.59 25.59 0 0 0-6.318 8.075 14.48 14.48 0 0 1 7.131-.111 14.47 14.47 0 0 1 6.318 3.31 1.4 1.4 0 0 1 .403.676c.067.259.059.532-.024.787s-.235.48-.442.651a1.4 1.4 0 0 1-.722.311c-3.993.498-8.45 1.893-10.717 12.033-.608 2.734-.431 11.413-.288 15.919l13.272-.565a1.39 1.39 0 0 1 .539.08c.172.062.331.157.467.281a1.4 1.4 0 0 1 .323.438 1.39 1.39 0 0 1 .131.529 35.67 35.67 0 0 1-6.171 20.202c-1.748 2.502-7.123 3.476-12.797 4.505-3.218.587-6.536 1.184-7.819 1.937-9.246 5.48-9.313 16.251-7.742 24.354 1.493 7.583 4.291 18.708 7.244 25.117s8.959 12.664 15.484 11.734c9.114-1.273 13.04-4.483 16.524-7.306 4.048-3.321 7.864-6.409 18.083-4.926a.8.8 0 0 1 .221.056c2.252.511 4.333 1.598 6.039 3.154.366.398.696.828.984 1.285.553.907 1.03 1.859 1.427 2.845l.244.564a7.22 7.22 0 0 0 2.322 3.321 2.07 2.07 0 0 0 1.304.386c.466-.022.911-.201 1.262-.508a2.22 2.22 0 0 0 .288-1.251c-.325-2.057-.909-4.066-1.737-5.977a20.9 20.9 0 0 0-.343-.753 1.4 1.4 0 0 1-.09-1.065c.112-.353.359-.647.688-.817s.711-.203 1.063-.091.647.36.817.689c.298.542.597 1.107.851 1.694.704 1.59 1.188 3.27 1.438 4.992.054.367.087.736.1 1.107 0 .133 0 .244.055.354s0 .277.055.354 0 0 .144 0a2.1 2.1 0 0 0 2.212-1.018c.334-.574.506-1.228.498-1.893-.26-1.482-.737-2.918-1.416-4.262-.032-.087-.069-.172-.11-.254l-.421-.72a1.41 1.41 0 0 1-.101-1.037c.1-.347.329-.641.64-.823a1.41 1.41 0 0 1 1.03-.155c.351.083.656.297.853.598.155.266.299.531.443.808s.453.808.641 1.229c.416.787.738 1.619.963 2.48a9.1 9.1 0 0 1 .265 1.915 3.91 3.91 0 0 0 .199.852c.201-.001.398-.05.575-.144a2.94 2.94 0 0 0 1.338-2.325 6.8 6.8 0 0 0-.53-3.143 2.21 2.21 0 0 0-.078-.255c-.783-2.147-2.069-4.075-3.749-5.623-1.45-1.226-3.066-2.239-4.8-3.011a39.74 39.74 0 0 0-5.53-2.159c-7.554-2.059-21.014-1.196-29.63.797-4.479 1.052-8.107.565-10.773-1.428-4.711-3.531-5.098-10.771-5.342-15.099 0-.797-.077-1.495-.132-2.037a1.4 1.4 0 0 1 1.236-1.46c.353-.04.708.057.993.271a1.4 1.4 0 0 1 .536.879c.066.587.11 1.339.155 2.214.221 3.841.575 10.262 4.236 13.018 1.968 1.472 4.811 1.793 8.46.941 8.948-2.092 23.005-2.956 30.969-.775a43.37 43.37 0 0 1 6.038 2.336c2.003.837 3.876 1.955 5.564 3.321a17.05 17.05 0 0 1 4.49 6.719c.155.399.276.775.398 1.107a8.86 8.86 0 0 1 .387 3.554"/><path d="M211.59 44.229l-.211-1.948a84.21 84.21 0 0 0-2.112-13.45 25.34 25.34 0 0 0-1.327-3.775c-2.135-4.782-5.729-8.037-12.244-8.169-7.874-.155-13.327 1.494-16.656 5.081-3.606 3.874-3.915 9.277-3.606 13.881a7.04 7.04 0 0 0-3.906 2.393 7.05 7.05 0 0 0-1.611 4.291c-.045 1.57.436 3.11 1.365 4.376a7.05 7.05 0 0 0 3.765 2.611c.166.952.376 1.893.62 2.779 1.252 4.828 3.894 9.182 7.598 12.52.73.64 1.506 1.224 2.322 1.749.388-.299.786-.62 1.106-.952s.708-.664 1.029-1.007a16.23 16.23 0 0 1-2.312-1.627c-3.747-3.238-6.331-7.616-7.354-12.465 0-.188-.078-.387-.122-.576a22.54 22.54 0 0 1-.31-1.793c-.041-.304-.182-.586-.4-.803a1.39 1.39 0 0 0-.805-.393 4.25 4.25 0 0 1-3.811-4.473 4.25 4.25 0 0 1 1.345-2.867 4.24 4.24 0 0 1 2.952-1.14c.193-.004.383-.046.56-.124s.336-.19.469-.33a1.5 1.5 0 0 0 .295-.516c.063-.19.086-.391.07-.591-.409-4.262-.454-9.631 2.754-13.073 2.599-2.779 7.167-4.196 13.604-4.196h.951c6.392.133 9.323 4.018 10.916 9.775a84.16 84.16 0 0 1 2.046 13.129l.21 1.948c.122 1.107.188 2.28.21 3.376.236 4.355-.688 8.694-2.676 12.575a13.77 13.77 0 0 1-1.394 4.107c-.664 1.305-1.534 2.493-2.577 3.52 1.625-.795 3.079-1.901 4.281-3.255a16.73 16.73 0 0 0 2.344-3.409c2.378-4.494 3.318-10.539 2.588-17.214m-20.77-5.5c.002.467-.135.924-.392 1.313a2.36 2.36 0 0 1-2.417 1.012 2.35 2.35 0 0 1-1.209-.643 2.36 2.36 0 0 1-.516-2.571c.178-.432.48-.8.868-1.06a2.35 2.35 0 0 1 1.31-.398c.623 0 1.22.247 1.662.687a2.36 2.36 0 0 1 .694 1.66z"/><path d="M207.375 38.694a2.36 2.36 0 0 1-1.449 2.187 2.35 2.35 0 0 1-1.363.137 2.36 2.36 0 0 1-1.209-.646c-.33-.33-.555-.752-.646-1.21a2.36 2.36 0 0 1 1.01-2.423 2.35 2.35 0 0 1 2.967.298 2.36 2.36 0 0 1 .69 1.656zm2.987 12.176a11.31 11.31 0 0 0-1.339-2.989c-2.123-3.41-5.795-5.391-8.615-5.391-3.282.003-6.428 1.309-8.749 3.631a12.4 12.4 0 0 0-3.628 8.756 1.49 1.49 0 0 0 .192.708c.122.216.295.399.505.532a1.27 1.27 0 0 0 .365.188 14.12 14.12 0 0 1-3.65 6.642c-.32.333-.66.648-1.017.941a13.46 13.46 0 0 1-1.162.897c-1.011.664-2.099 1.203-3.24 1.605a1.43 1.43 0 0 0-.896.941 1.38 1.38 0 0 0-.032.661 1.4 1.4 0 0 0 .275.601c1.588 1.977 3.599 3.572 5.885 4.668a16.93 16.93 0 0 0 7.321 1.665 16.5 16.5 0 0 0 5.331-.875c2.79-.949 5.282-2.618 7.223-4.837a16.8 16.8 0 0 0 3.837-7.805 16 16 0 0 0 .31-4.494 10.86 10.86 0 0 0-.155-1.439 1.43 1.43 0 0 0 .553 0c.124-.049.243-.112.354-.188.219-.13.401-.315.529-.536s.197-.471.201-.726a11.52 11.52 0 0 0-.432-3.133l.034-.022zM192.809 49a9.61 9.61 0 0 1 3.376-2.712c1.317-.635 2.761-.961 4.223-.952a8.07 8.07 0 0 1 3.419 1.155c1.038.638 1.919 1.504 2.575 2.531a8.8 8.8 0 0 1 1.372 3.088c-1.704-.775-4.425-2.148-6.692-3.387a1.39 1.39 0 0 0-.658-.165 1.4 1.4 0 0 0-.658.165c-1.902.996-3.993 2.048-5.806 2.934l-1.704.808c-.464.21-.885.41-1.249.553a9.77 9.77 0 0 1 1.835-3.974l-.033-.044zm9.567 19.14a13.95 13.95 0 0 1-9.732 4.072c-3.651.031-7.169-1.371-9.8-3.906a15.78 15.78 0 0 0 2.743-1.705c.387-.299.785-.62 1.106-.952s.697-.664 1.018-1.007c2.315-2.509 3.825-5.656 4.335-9.033 1.648-.686 4.203-1.926 8.306-4.052 2.5 1.34 4.314 2.214 5.63 2.867a13.75 13.75 0 0 1 .321 6.088 13.96 13.96 0 0 1-1.394 4.118 13.74 13.74 0 0 1-2.577 3.509"/><path d="M199.877 58.442a2.92 2.92 0 0 1-2.058-.86c-.545-.548-.851-1.289-.851-2.062 0-.642.332-1.162.973-1.162s.907.509.907 1.107a.82.82 0 0 0 .131.31.81.81 0 0 0 .563.339c.113.014.227.004.335-.029a.64.64 0 0 0 .608-.598 1.84 1.84 0 0 0-.155-.742 2.93 2.93 0 0 0-.73-.764c.269-.08.507-.238.686-.454a1.47 1.47 0 0 0 .199-.83c0-.332-.376-1.107-1.106-.697-.553.332-.663-.432-.663-1.107 0-.294.116-.575.324-.783s.488-.324.782-.324c.774 0 1.517.308 2.064.856a2.92 2.92 0 0 1 .855 2.066 2.93 2.93 0 0 0 0 2.79 2.92 2.92 0 0 1-.855 2.067c-.547.548-1.29.856-2.064.856m8.747 43.504s7.123 6.387 15.363 22.139l-15.363-22.139z"/><path d="M223.965 125.514a1.42 1.42 0 0 1-.723-.205c-.218-.133-.396-.322-.516-.547-7.996-15.343-14.986-21.731-15.052-21.797a1.4 1.4 0 0 1-.462-.966c-.019-.371.109-.734.357-1.01a1.4 1.4 0 0 1 1.974-.105c.298.266 7.399 6.741 15.661 22.582a1.42 1.42 0 0 1 .154.692c-.008.24-.078.473-.202.679a1.41 1.41 0 0 1-.507.494c-.209.118-.444.181-.684.183zm-37.327 94.083l-2.809.088c-9.457.355-18.648 1.052-27.275 2.059h-.132l-2.787 3.155 3.24-.387c8.671-1.008 17.918-1.716 27.429-2.048l2.82-.1-.486-2.778v.011zm113.642 21.874c-18.161-12.797-48.665-19.339-80.562-21.343l-2.765-.166c-10.131-.553-20.372-.653-30.337-.365l-2.81.088c-9.456.355-18.647 1.052-27.274 2.059h-.132l-4.17.487c-12.166 1.506-25.062 3.421-37.493 6.111l-3.042.664c-34.74 7.871-64.79 21.907-61.593 49.239a31.27 31.27 0 0 0 2.323 8.856 28.22 28.22 0 0 0 1.604 3.166c.565.076 1.134.112 1.703.11h.354a9.84 9.84 0 0 0 1.283-.099 24.4 24.4 0 0 1-1.593-2.701c-1.551-3.016-2.533-6.292-2.898-9.664-2.92-25.084 25.184-38.335 58.198-45.929l2.975-.675c11.668-2.546 23.834-4.428 35.392-5.889l4.181-.532 3.24-.387c8.671-1.008 17.917-1.716 27.429-2.048l2.82-.1 10.552-.155c6.403 0 12.851.166 19.255.521l2.776.166c30.725 1.915 60.134 8.103 77.973 20.169-6.149 11.546-15.694 21.033-26.986 28.781-.818.576-1.67 1.107-2.522 1.694-34.629 22.682-83.702 30.287-101.752 32.379-20.406 2.38-43.842 4.307-64.148 2.646-.94-.066-1.847-.155-2.776-.243-.027.945-.305 1.866-.807 2.667a80.62 80.62 0 0 0 2.975.277c5.586.476 11.403.686 17.309.686a420.68 420.68 0 0 0 47.724-3.143c15.562-1.816 45.911-6.576 74.423-18.066a162.46 162.46 0 0 0 29.155-15.033l2.333-1.594c12.841-8.956 22.264-19.262 28.148-30.819.152-.301.191-.646.11-.973s-.277-.614-.552-.809l-.022-.033zm-232.56 58.57a1.46 1.46 0 0 0 .553 1.24c3.76 2.823 8.206 3.775 13.018 3.886a56.89 56.89 0 0 1-13.493-5.535c0 .122-.055.232-.077.354v.055zm118.918-80.5l-2.809.089c-9.457.354-18.648 1.052-27.275 2.059h-.132l-2.787 3.155 3.24-.388c8.671-1.007 17.918-1.715 27.429-2.047l2.82-.1-.486-2.779"/><path d="M184.559 284.831c-.348-.011-.678-.15-.929-.391a1.41 1.41 0 0 1-.427-.914c-.025-.346.08-.69.293-.964a1.4 1.4 0 0 1 .864-.52c56.715-8.081 114.029-40.505 114.604-40.837a1.4 1.4 0 0 1 .533-.223 1.39 1.39 0 0 1 .578.01 1.4 1.4 0 0 1 .525.242c.156.117.286.264.383.434a1.41 1.41 0 0 1 .176.551 1.4 1.4 0 0 1-.348 1.078c-.129.145-.288.262-.465.344-.575.332-58.364 33.01-115.588 41.168h-.199m-47.78 5.27c-6.731.044-13.454-.482-20.096-1.572-.365-.065-.69-.272-.903-.576a1.4 1.4 0 0 1 .345-1.949c.303-.213.679-.296 1.044-.232 24.045 4.162 51.562-1.45 51.839-1.516a1.4 1.4 0 0 1 .991.253c.287.206.486.513.557.859a1.41 1.41 0 0 1-.173 1.009c-.182.303-.472.525-.811.624a181.83 181.83 0 0 1-32.782 3.1M30.603 277.182a4.39 4.39 0 0 1-1.206-.166 1.4 1.4 0 0 1-.957-1.732 1.4 1.4 0 0 1 1.731-.958c1.172.332 2.555-.764 3.462-1.904 1.947-2.435 3.218-6.188 1.67-9.077s-5.862-3.952-9.08-3.487a32.16 32.16 0 0 0-7.886 2.612l-3.152 1.307c-5.154 1.981-9.335 2.214-12.785.719a3.41 3.41 0 0 1-2.4-3.199c.031-.37.206-.713.487-.955a1.41 1.41 0 0 1 1.017-.34 1.4 1.4 0 0 1 .934.461c.241.268.37.618.36.978a1.78 1.78 0 0 0 .708.487c2.754 1.196 6.249.941 10.673-.764 1.029-.387 2.046-.83 3.053-1.262 2.73-1.307 5.619-2.252 8.594-2.812 4.291-.619 9.644.665 11.934 4.938s.398 9.221-1.936 12.176c-.592.859-1.367 1.575-2.27 2.096s-1.911.833-2.95.915m-6.117 28.339a7.2 7.2 0 0 1-4.579-1.605c-2.079-1.716-2.898-4.317-3.617-6.642l-.398-1.24c-.453-1.328-1.747-4.428-4.081-4.715-.191-.01-.379-.059-.55-.144s-.324-.204-.448-.35a1.41 1.41 0 0 1-.326-1.066 1.41 1.41 0 0 1 .552-.968c.153-.115.328-.198.514-.243s.379-.052.568-.019c2.809.321 5.099 2.668 6.426 6.642l.409 1.295c.664 2.114 1.283 4.096 2.732 5.291a4.42 4.42 0 0 0 2.605.974c.95.036 1.887-.236 2.671-.774a4.25 4.25 0 0 0 1.531-2.27 4.26 4.26 0 0 0-.17-2.734 4.59 4.59 0 0 0-1.792-1.981 1.41 1.41 0 0 1-.451-.36c-.124-.15-.215-.323-.268-.51a1.41 1.41 0 0 1 .152-1.119 1.4 1.4 0 0 1 .395-.42c.159-.112.34-.188.53-.226a1.4 1.4 0 0 1 1.102.244 7.43 7.43 0 0 1 2.876 3.21 6.9 6.9 0 0 1 .588 3.376c-.091 1.157-.473 2.273-1.109 3.243a6.89 6.89 0 0 1-2.532 2.308 6.88 6.88 0 0 1-3.329.803z"/><path d="M35.225 283.946c-.768.005-1.527-.173-2.212-.52a1.4 1.4 0 0 1-.608-1.882c.169-.331.462-.58.814-.694a1.39 1.39 0 0 1 1.066.085c1.217.62 2.898-.233 3.838-1.417.474-.552.808-1.211.974-1.92a4.52 4.52 0 0 0-.023-2.154 2.55 2.55 0 0 0-1.079-1.372c-.51-.316-1.115-.442-1.709-.355-.176.051-.361.066-.544.045a1.4 1.4 0 0 1-.519-.167 1.41 1.41 0 0 1-.415-.354 1.4 1.4 0 0 1-.248-.487 1.42 1.42 0 0 1 .962-1.738 5.33 5.33 0 0 1 3.78.573c1.146.652 2.01 1.706 2.425 2.959a7.28 7.28 0 0 1 .134 3.524c-.245 1.168-.773 2.258-1.538 3.173-.608.796-1.382 1.45-2.268 1.917s-1.863.734-2.864.784m36.611 56.29a7.08 7.08 0 0 1-3.893-1.107c-2.544-1.694-3.594-4.627-4.347-7.538l-1.106-5.037c-.67.615-1.467 1.076-2.334 1.35a7.98 7.98 0 0 1-7.797-2.214 12.48 12.48 0 0 1-3.318-7.007c-.177-1.107-.243-2.214-.321-3.232a21.64 21.64 0 0 0-.575-4.34c-.531-1.882-1.98-3.952-3.948-4.029-.183-.007-.363-.05-.529-.127s-.316-.186-.44-.32a1.4 1.4 0 0 1-.284-.465 1.41 1.41 0 0 1-.085-.538 1.35 1.35 0 0 1 .115-.538 1.36 1.36 0 0 1 .319-.447 1.34 1.34 0 0 1 .471-.283 1.36 1.36 0 0 1 .544-.072c3.384.133 5.718 3.144 6.537 6.078a23.54 23.54 0 0 1 .664 4.892l.299 2.978a9.86 9.86 0 0 0 2.511 5.458c.631.663 1.425 1.148 2.302 1.406s1.808.281 2.697.066a3.48 3.48 0 0 0 1.683-1.178c.43-.553.684-1.222.728-1.922 0-.265-.078-.531-.111-.797a1.4 1.4 0 0 1 .233-1.016 1.39 1.39 0 0 1 2.499.474 4.82 4.82 0 0 1 .166 1.107c.445 3.026 1.05 6.027 1.814 8.989.608 2.369 1.427 4.726 3.185 5.9.852.571 1.878.822 2.897.708s1.965-.586 2.669-1.332a4.34 4.34 0 0 0 .307-5.597 1.41 1.41 0 0 1 .397-1.775 1.4 1.4 0 0 1 1.814.103 7.31 7.31 0 0 1-.542 9.177 7.2 7.2 0 0 1-2.388 1.646c-.899.381-1.867.574-2.843.568"/><path d="M102.239 308.621a7.55 7.55 0 0 1-.609 2.701c-.278.707-.65 1.373-1.106 1.981-1.047 1.295-2.317 2.394-3.749 3.244a7.89 7.89 0 0 1 2.454 4.065 7.9 7.9 0 0 1-.322 4.739c-.591 1.509-1.631 2.799-2.98 3.696a7.89 7.89 0 0 1-4.56 1.315 7.54 7.54 0 0 1-1.913-.255 8.15 8.15 0 0 1-4.587-3.484 8.16 8.16 0 0 1-1.142-5.649 1.4 1.4 0 0 1 .602-.813c.295-.186.649-.254.993-.192a1.39 1.39 0 0 1 .861.53 1.4 1.4 0 0 1 .277.974c-.179 1.266.095 2.554.773 3.637a5.42 5.42 0 0 0 2.932 2.285 5.14 5.14 0 0 0 3.693-.436 5.15 5.15 0 0 0 2.434-2.814c.432-1.209.397-2.536-.098-3.721a5.15 5.15 0 0 0-2.578-2.682 1.39 1.39 0 0 1-.835-1.204c-.014-.259.045-.516.169-.743s.309-.416.534-.544a15.86 15.86 0 0 0 4.8-3.686l.376-.542a5.32 5.32 0 0 0 .807-2.679 3.51 3.51 0 0 0-.343-1.539c-.984-1.937-3.705-2.668-8.306-2.214a84.89 84.89 0 0 1-9.954.897 20.9 20.9 0 0 1-12.62-4.251 1.46 1.46 0 0 1-.429-.552c-.096-.216-.139-.452-.124-.688 0-.122 0-.232.077-.365a1.47 1.47 0 0 1 .664-.753 4.68 4.68 0 0 0 1.886-2.702c.281-1.099.153-2.263-.36-3.276a7.16 7.16 0 0 0-2.657-2.566 7.14 7.14 0 0 0-3.581-.898 17.13 17.13 0 0 0-3.816.431l-2.544.388a12.25 12.25 0 0 1-1.283.099h-.354a14.46 14.46 0 0 1-1.703-.11c-5.442-.654-10.109-4.428-14.455-8.225l-.111-.1a1.39 1.39 0 0 1-.33-.433 1.4 1.4 0 0 1-.066-1.067c.06-.173.153-.333.274-.47a1.38 1.38 0 0 1 .908-.471c.352-.035.704.066.983.282l.088.056c3.606 3.21 7.2 6.144 11.06 7.262a11.06 11.06 0 0 0 3.318.476h.232c1.149-.058 2.292-.206 3.418-.443 1.431-.295 2.886-.455 4.347-.476a9.85 9.85 0 0 1 5.022 1.31 9.86 9.86 0 0 1 3.66 3.682 7.67 7.67 0 0 1 .752 4.328c-.177 1.485-.784 2.886-1.747 4.03 6.47 3.675 9.611 2.812 19.045 1.815 2.212-.21 8.76-.896 11.06 3.731a6.06 6.06 0 0 1 .619 3.044m-1.371 46.649c-.496-.002-.99-.066-1.471-.189a9.5 9.5 0 0 1-3.749-2.214c-2.663-2.295-4.828-5.114-6.359-8.28-.166-.332-.321-.675-.476-1.018a14.2 14.2 0 0 0-1.504-2.757c-.295-.439-.689-.803-1.15-1.063a3.37 3.37 0 0 0-1.505-.431c-.362.014-.716-.113-.987-.354a1.41 1.41 0 0 1 .766-2.447c.995-.024 1.98.2 2.868.65a6.03 6.03 0 0 1 2.22 1.93 16.86 16.86 0 0 1 1.836 3.321 37.61 37.61 0 0 0 .453.963c1.367 2.82 3.294 5.332 5.663 7.383.743.711 1.635 1.248 2.61 1.572a3.45 3.45 0 0 0 2.264-.198c.711-.32 1.293-.871 1.65-1.564a3.46 3.46 0 0 0 .32-2.253 3.45 3.45 0 0 0-1.149-1.963c-.156-.113-.288-.258-.385-.425a1.41 1.41 0 0 1-.184-.545c-.023-.192-.006-.387.05-.573s.149-.357.275-.504a1.39 1.39 0 0 1 .453-.353c.174-.085.363-.133.556-.142a1.39 1.39 0 0 1 .567.094 1.41 1.41 0 0 1 .482.312 6.25 6.25 0 0 1 2.05 3.2c.336 1.254.273 2.581-.179 3.797a6.25 6.25 0 0 1-2.344 2.992c-1.072.73-2.345 1.107-3.641 1.081m116.904-11.579a5.53 5.53 0 0 1-2.743-.698c-.322-.185-.558-.491-.655-.85a1.41 1.41 0 0 1 .135-1.065c.091-.159.212-.299.357-.411s.31-.195.487-.244a1.38 1.38 0 0 1 .542-.038 1.4 1.4 0 0 1 .517.173c.763.339 1.62.405 2.426.185s1.512-.711 1.998-1.392c.507-.792.812-1.697.887-2.636a5.74 5.74 0 0 0-.456-2.744c-.128-.391-.381-.729-.719-.963-.327.124-.69.115-1.011-.026a1.34 1.34 0 0 1-.703-.726c-.136-.331-.142-.701-.017-1.035a1.42 1.42 0 0 1 .691-.77c1.875-.854 3.618-1.972 5.176-3.321a6.3 6.3 0 0 0 1.583-2.132 6.29 6.29 0 0 0 .563-2.595c-.099-.969-.515-1.878-1.183-2.586a4.42 4.42 0 0 0-2.511-1.332c-.194-.01-.384-.06-.557-.146s-.328-.209-.452-.358-.217-.322-.271-.509-.069-.382-.043-.575a1.41 1.41 0 0 1 .19-.544c.101-.166.235-.31.393-.422s.339-.189.529-.228.386-.038.576.003c1.599.246 3.07 1.02 4.179 2.2a7.25 7.25 0 0 1 1.937 4.309 8.97 8.97 0 0 1-.73 3.794c-.516 1.197-1.285 2.267-2.256 3.136-1.051.982-2.217 1.834-3.473 2.535a5.33 5.33 0 0 1 .719 1.273 8.52 8.52 0 0 1-.785 8.059c-.614.829-1.412 1.504-2.332 1.971s-1.935.713-2.966.719m-16.435 26.302c-.27.001-.534-.077-.76-.225s-.404-.358-.512-.606c-.602-1.355-1.576-2.511-2.808-3.333s-2.674-1.278-4.155-1.313a7.81 7.81 0 0 0-4.211 1.116 7.82 7.82 0 0 0-2.961 3.198c-.184.301-.475.521-.814.618a1.4 1.4 0 0 1-1.698-.858 1.41 1.41 0 0 1 .012-1.022 10.6 10.6 0 0 1 3.488-4.008 10.58 10.58 0 0 1 4.993-1.808 10.56 10.56 0 0 1 5.242.846 10.58 10.58 0 0 1 4.173 3.288 10.91 10.91 0 0 1 3.177-2.844 10.92 10.92 0 0 1 4.023-1.409c1.421-.2 2.867-.119 4.256.241a10.92 10.92 0 0 1 3.84 1.853c1.865-2.168 4.379-3.675 7.169-4.297s5.706-.327 8.315.843c.165.08.314.191.436.327a1.4 1.4 0 0 1 .279.47c.061.174.087.356.077.54a1.39 1.39 0 0 1-.134.529 1.4 1.4 0 0 1-.796.715c-.173.061-.356.088-.54.078a1.39 1.39 0 0 1-.528-.135 10.47 10.47 0 0 0-7.092-.452c-2.345.681-4.378 2.161-5.749 4.183a1.4 1.4 0 0 1-.446.44 1.41 1.41 0 0 1-.593.202 1.37 1.37 0 0 1-.599-.08 1.36 1.36 0 0 1-.507-.33 8.13 8.13 0 0 0-3.347-2.076c-1.268-.407-2.617-.495-3.928-.258a8.12 8.12 0 0 0-3.589 1.619c-1.046.826-1.873 1.897-2.408 3.117a1.4 1.4 0 0 1-1.283.831M7.631 240.829a4.95 4.95 0 0 1-2.753-.836c-.815-.545-1.45-1.319-1.825-2.226a4.96 4.96 0 0 1 1.074-5.404 4.95 4.95 0 0 1 2.537-1.357 4.94 4.94 0 0 1 2.863.282 4.96 4.96 0 0 1 3.059 4.582 4.96 4.96 0 0 1-1.451 3.506 4.95 4.95 0 0 1-3.504 1.453zm0-7.107a2.15 2.15 0 0 0-1.199.365 2.16 2.16 0 0 0-.321 3.324 2.16 2.16 0 0 0 1.107.588c.419.082.853.038 1.247-.127a2.16 2.16 0 0 0 1.324-2.002 2.15 2.15 0 0 0-.164-.825 2.17 2.17 0 0 0-.468-.698c-.2-.2-.438-.357-.7-.465a2.14 2.14 0 0 0-.824-.16zm62.998-17.823a4.95 4.95 0 0 1-2.753-.835 4.96 4.96 0 0 1-2.107-5.091c.191-.962.663-1.846 1.356-2.54s1.576-1.165 2.537-1.357a4.95 4.95 0 0 1 2.863.282 4.96 4.96 0 0 1 1.608 8.089 4.95 4.95 0 0 1-3.504 1.452zm0-7.106a2.16 2.16 0 0 0-1.522 3.689 2.16 2.16 0 0 0 1.107.588c.419.082.853.037 1.247-.128s.73-.443.966-.8a2.16 2.16 0 0 0 .358-1.202c0-.283-.056-.563-.164-.824s-.268-.499-.468-.698-.438-.358-.7-.465a2.14 2.14 0 0 0-.825-.16zm198.284-11.712c-.98 0-1.938-.291-2.753-.836a4.96 4.96 0 0 1-1.825-2.226c-.375-.906-.473-1.903-.282-2.865a4.96 4.96 0 0 1 1.357-2.539 4.94 4.94 0 0 1 5.399-1.075 4.95 4.95 0 0 1 2.224 1.826 4.97 4.97 0 0 1 .835 2.756c0 .651-.128 1.296-.377 1.897s-.614 1.149-1.074 1.609a4.96 4.96 0 0 1-1.608 1.075c-.601.249-1.245.378-1.896.378zm0-7.107a2.15 2.15 0 0 0-1.199.365c-.355.237-.632.575-.794.97a2.16 2.16 0 0 0 1.579 2.942c.419.082.853.038 1.247-.127a2.16 2.16 0 0 0 .966-.8 2.17 2.17 0 0 0 .358-1.202c0-.283-.056-.564-.165-.825a2.14 2.14 0 0 0-.468-.698 2.15 2.15 0 0 0-.699-.465 2.16 2.16 0 0 0-.825-.16zM109.162 331.059a4.94 4.94 0 0 1-2.744-.839c-.811-.545-1.443-1.319-1.816-2.223s-.468-1.899-.276-2.858a4.95 4.95 0 0 1 1.355-2.531 4.94 4.94 0 0 1 2.532-1.351 4.95 4.95 0 0 1 2.855.283c.902.375 1.674 1.01 2.216 1.823a4.95 4.95 0 0 1 .456 4.644c-.25.601-.615 1.147-1.075 1.607s-1.007.824-1.608 1.072a4.93 4.93 0 0 1-1.895.373zm0-7.096c-.424.011-.836.147-1.184.392a2.16 2.16 0 0 0-.868 2.225 2.16 2.16 0 0 0 2.953 1.527c.39-.166.723-.445.956-.8a2.16 2.16 0 0 0 .355-1.196c-.017-.576-.258-1.122-.671-1.523a2.21 2.21 0 0 0-1.541-.625zm175.688 14.203a4.94 4.94 0 0 1-2.746-.834c-.813-.544-1.447-1.316-1.821-2.221a4.96 4.96 0 0 1-.282-2.859c.191-.959.662-1.841 1.353-2.533s1.573-1.163 2.532-1.354a4.94 4.94 0 0 1 2.856.281c.904.375 1.676 1.009 2.219 1.823a4.95 4.95 0 0 1 .833 2.749c0 .65-.128 1.293-.376 1.893a4.96 4.96 0 0 1-1.072 1.606c-.459.459-1.004.824-1.604 1.072a4.93 4.93 0 0 1-1.892.377zm0-7.107a2.16 2.16 0 0 0-1.198.364 2.15 2.15 0 0 0-.794.969c-.163.394-.206.828-.123 1.247a2.16 2.16 0 0 0 .59 1.105c.302.302.686.508 1.105.591a2.16 2.16 0 0 0 1.246-.123c.394-.163.731-.44.968-.795a2.16 2.16 0 0 0 .363-1.199 2.22 2.22 0 0 0-.647-1.511 2.21 2.21 0 0 0-1.51-.648zm18.195-60.331c-.98 0-1.939-.291-2.754-.836a4.96 4.96 0 0 1-2.105-5.094 4.95 4.95 0 0 1 1.36-2.539c.694-.694 1.577-1.165 2.539-1.355s1.959-.09 2.864.287 1.678 1.014 2.221 1.831.832 1.777.83 2.758a4.96 4.96 0 0 1-1.455 3.5c-.929.927-2.188 1.448-3.5 1.448zm0-7.106a2.16 2.16 0 0 0-1.992 1.332c-.164.395-.206.829-.123 1.247s.289.804.59 1.106a2.15 2.15 0 0 0 1.104.59c.418.083.852.041 1.247-.122a2.16 2.16 0 0 0 .967-.795c.237-.355.364-.773.364-1.2.001-.284-.053-.565-.161-.828a2.14 2.14 0 0 0-.468-.701 2.13 2.13 0 0 0-1.528-.629zM194.159 33.225c-.708-1.384-2.953-2.911-10.087.266-.128.041-.237.129-.303.247s-.084.256-.052.387.113.245.227.318a.53.53 0 0 0 .383.077l8.848.066a.97.97 0 0 0 1.072-.863.98.98 0 0 0-.077-.498m15.484.067c-.631-1.384-2.655-2.922-9.003.199a.56.56 0 0 0-.242.257.55.55 0 0 0 .474.783l7.897.122a.95.95 0 0 0 .465-.113.96.96 0 0 0 .351-.325c.087-.136.138-.293.149-.454a.95.95 0 0 0-.091-.47z"/></g><path d="M230.878 154.473l-2.677 2.557c-9.954 9.542-23.613 22.627-34.286 22.704-4.656 0-7.919-4.892-12.42-11.667l-5.132-7.428c-1.405-1.904-5.729-7.151-7.897-9.697a24.56 24.56 0 0 1 .663-1.428 20.81 20.81 0 0 0 2.212-6.996c1.106 0 2.92.155 4.933.287 7.853.476 21.7 1.362 35.392 1.207l4.675-.206.634 2.586a4.66 4.66 0 0 0 1.58 1.178 4.64 4.64 0 0 0 1.926.416h.299c.032.443.16.874.376 1.262 1.438 2.801 6.702 4.428 6.923 4.528a24.09 24.09 0 0 0 2.799.708" fill="#ffd600"/><path fill-rule="evenodd" d="M252.567 138.599c-.2-1.687-1.297-2.536-2.935-2.866a3.15 3.15 0 0 0-3.277 1.569 4.06 4.06 0 0 0-4.502-1.864 3.34 3.34 0 0 0-1.638 1.179l-.151-.156-.309-.304c-.432-.454-.967-.799-1.56-1.004s-1.226-.265-1.847-.175c-.755.195-1.447.584-2.006 1.128s-.97 1.224-1.188 1.974c-.165.366-.306.755-.436 1.18-.353 1.016-.61 2.062-.766 3.126l-.153 1.416c-.012.145-.012.291 0 .436-.389 0-.967 0-1.697-.059s-1.344-.059-1.98-.059h-.001c-2.112-.195-4.243.005-6.282.59-.276.101-.541.232-.79.39-.534.317-.947.803-1.174 1.381.004-.031-.029.059-.004.011l.004-.011c-.147.415-.26 1.011-.216 1.438.034.472.171.931.4 1.345 1.396 2.719 6.178 4.401 7.195 4.758l.184.067c.978.311 1.974.563 2.982.755a23.82 23.82 0 0 0 3.878.436h1.178a26.78 26.78 0 0 0 6.495-.802 22.88 22.88 0 0 0 2.758-.826c.131-.054.265-.101.401-.141a12.29 12.29 0 0 0 4.313-2.56c1.634-1.688 2.662-3.87 2.924-6.205a19.05 19.05 0 0 0 .2-3.009v-1.698-1.44zm-17.212 5.398l.095-.564c.064-.239.091-.84.121-1.516l.211-2.346c.175-.702.842-.702 1.403-.702.702 0 1.557.702 1.557 2.105v2.807c0 1.403-.659 2.944-.659 2.944s2.102-1.335 2.634-2.633c.678-1.654.678-3.099.678-3.806v-.013c0-.702.701-2.105 1.403-2.105s2.105.701 2.105 2.806l.01 1.19c.017 1.158.024 1.646-.246 2.586-.273.954-1.167 2.346-1.167 2.346s2.777-2.035 3.801-3.663c.436-.693.574-1.627.699-2.469.166-1.13.309-2.095 1.113-2.095 1.403 0 1.403.702 1.403 2.807s-.701 4.911-1.403 5.613-4.21 4.21-7.017 4.912-5.988 1.108-9.28.45l-.606-.12c-2.824-.556-6.754-1.33-8.356-3.137-1.351-1.524.23-4.029 3.037-3.327l1.309.371c2.075.618 4.794 1.427 5.933.287.999-.999 1.129-2 1.222-2.728z" fill="#000"/></svg>