<svg width="308" height="370" viewBox="0 0 308 370" fill="none" xmlns="http://www.w3.org/2000/svg">
<path d="M160.525 212.977L158.313 215.457C158.497 215.652 158.73 215.793 158.988 215.866H159.331C159.596 215.863 159.855 215.791 160.084 215.657C160.313 215.523 160.504 215.332 160.636 215.102C160.84 214.778 160.941 214.398 160.926 214.015C160.91 213.631 160.778 213.262 160.547 212.955L160.525 212.977ZM123.684 183.93C118.376 184.966 113.62 187.883 110.29 192.144C109.188 191.229 107.884 190.588 106.486 190.274C105.088 189.96 103.636 189.983 102.248 190.339C100.86 190.696 99.5759 191.376 98.5015 192.325C97.4271 193.274 96.5928 194.464 96.0671 195.797C93.4225 195.011 90.5891 195.149 88.0331 196.187C85.4762 197.225 83.3482 199.102 81.9981 201.509C81.8321 201.841 81.8041 202.225 81.9201 202.577C82.0362 202.93 82.2867 203.222 82.6171 203.391C82.7797 203.474 82.957 203.525 83.1391 203.54C83.3212 203.555 83.5043 203.533 83.6781 203.477C83.8521 203.42 84.0131 203.329 84.1511 203.21C84.2891 203.091 84.4031 202.945 84.4851 202.782C85.6095 200.763 87.4545 199.244 89.6511 198.527C91.8471 197.811 94.2321 197.951 96.3301 198.918C96.5231 199.019 96.7371 199.072 96.9551 199.072C97.1731 199.072 97.3871 199.019 97.5801 198.918C97.7749 198.823 97.9445 198.683 98.0751 198.51C98.2058 198.337 98.2938 198.135 98.3321 197.922C98.5611 196.747 99.1202 195.661 99.9441 194.792C100.768 193.923 101.822 193.308 102.983 193.017C104.144 192.727 105.364 192.773 106.499 193.152C107.634 193.531 108.638 194.225 109.393 195.155C109.522 195.323 109.69 195.458 109.883 195.549C110.076 195.64 110.286 195.682 110.499 195.675C110.718 195.664 110.932 195.602 111.124 195.495C111.316 195.387 111.481 195.237 111.605 195.055C114.534 190.71 119.056 187.695 124.191 186.664C127.556 186.052 131.027 186.477 134.145 187.882C135.007 188.263 135.82 188.747 136.567 189.321L137.806 187.749L138.326 187.107C137.584 186.532 136.788 186.031 135.948 185.612C132.132 183.718 127.801 183.124 123.616 183.919L123.684 183.93ZM238.565 212.811C238.518 212.988 238.436 213.155 238.325 213.301C238.214 213.446 238.075 213.569 237.916 213.661C237.757 213.753 237.582 213.812 237.4 213.837C237.218 213.861 237.034 213.849 236.856 213.802C236.679 213.755 236.513 213.673 236.367 213.561C236.222 213.45 236.1 213.311 236.008 213.152C235.916 212.993 235.856 212.818 235.832 212.636C235.808 212.454 235.819 212.269 235.867 212.092C236.663 209.092 234.34 205.45 231 204.398C229.07 203.858 227.019 203.939 225.138 204.63C223.609 205.147 222.191 205.947 220.958 206.988C220.811 207.132 220.627 207.231 220.427 207.276L223.247 202.35C224.485 201.823 225.793 201.477 227.129 201.321C228.7 201.134 230.292 201.269 231.808 201.719C236.597 203.18 239.76 208.361 238.565 212.789" fill="white"/>
<path d="M282.583 298.558C282.401 298.651 282.201 298.7 281.997 298.702C281.731 298.701 281.47 298.624 281.245 298.481C281.019 298.338 280.839 298.135 280.725 297.894C280.646 297.728 280.601 297.549 280.592 297.365C280.583 297.182 280.61 296.999 280.671 296.826C280.733 296.654 280.828 296.495 280.951 296.359C281.074 296.223 281.223 296.112 281.388 296.034C283.501 295.049 283.888 291.85 283.07 289.315C282.695 288.054 282.064 286.884 281.218 285.879C280.372 284.873 279.327 284.053 278.148 283.47C277.032 282.959 275.791 282.785 274.577 282.968C273.363 283.151 272.23 283.683 271.313 284.499C271.065 284.741 270.738 284.885 270.391 284.904C270.045 284.922 269.705 284.814 269.433 284.599C269.164 284.382 268.986 284.072 268.933 283.73C268.881 283.388 268.956 283.039 269.145 282.75C270.008 281.389 271.357 278.754 270.572 276.352C270.49 276.116 270.391 275.886 270.273 275.666C269.798 274.79 269.08 274.071 268.205 273.596L270.727 271.902C271.503 272.504 272.15 273.257 272.629 274.116C272.89 274.564 273.101 275.039 273.259 275.533C273.73 277.126 273.73 278.822 273.259 280.415C275.274 279.937 277.39 280.127 279.287 280.957C280.828 281.688 282.199 282.735 283.309 284.029C284.42 285.324 285.247 286.838 285.735 288.473C286.93 292.115 286.222 296.898 282.594 298.602L282.583 298.558ZM244.315 153.388C243.47 153.7 242.605 153.959 241.727 154.163C242.334 160.726 241.512 167.343 239.316 173.557C237.347 179.535 232.426 187.472 227.659 195.121L223.235 202.35C223.235 202.428 223.146 202.494 223.102 202.583L220.425 207.276L219.53 209.003C217.97 212.454 217.102 216.177 216.975 219.962C216.919 220.87 216.908 221.811 216.975 222.741L219.751 222.907V220.128C219.86 216.717 220.642 213.361 222.051 210.254C222.914 208.516 223.976 206.623 225.148 204.63L226.365 202.583L227.139 201.321L230.048 196.605C234.903 188.856 239.913 180.742 241.981 174.465C244.275 167.706 245.076 160.53 244.326 153.432L244.315 153.388ZM169.306 137.846C169.21 138.584 169.1 139.322 168.974 140.06C168.98 140.123 168.98 140.186 168.974 140.248C168.875 140.735 168.797 141.211 168.676 141.676C168.087 144.339 167.231 146.935 166.121 149.425L165.49 150.809L165.203 151.44C163.028 156.071 160.127 160.324 156.609 164.037C154.994 165.764 153.192 167.358 151.455 168.975C150.349 169.96 149.243 170.934 148.237 171.941C143.884 176.248 139.82 180.837 136.071 185.679C135.96 185.801 135.849 185.945 135.75 186.066C135.241 186.686 134.754 187.317 134.268 187.948C131.934 190.915 129.623 193.937 127.433 197.037C120.421 206.911 114.481 217.505 111.772 229.073C111.537 230.059 111.33 231.052 111.152 232.05L114.127 231.386C114.333 230.385 114.562 229.388 114.813 228.397C117.235 218.999 121.881 210.243 127.433 201.963C130.319 197.645 133.471 193.461 136.69 189.387L137.929 187.815L138.448 187.173C142.071 182.526 145.991 178.118 150.183 173.978C151.212 172.982 152.274 172.019 153.335 171.056C155.116 169.428 156.963 167.735 158.655 165.975C162.082 162.361 164.952 158.257 167.171 153.798C169.386 149.384 170.958 144.676 171.839 139.817C171.925 139.41 171.999 139 172.06 138.588L172.281 137.027L169.306 137.846ZM194.744 180.055C194.502 179.874 194.207 179.777 193.904 179.779C193.6 179.794 193.309 179.906 193.074 180.1C192.333 180.709 191.57 181.351 190.796 182.037C184.735 187.361 177.313 194.9 170.069 202.627L160.558 213.01L158.346 215.49L152.307 222.287L149.509 225.486L153.689 224.955L156.465 221.8C161.608 215.977 167.758 209.18 173.918 202.627C179.57 196.66 185.244 190.915 190.209 186.354L188.738 189.542C186.631 193.748 184.885 198.125 183.518 202.627C182.228 207.052 182.109 211.736 183.175 216.221C183.385 217.117 183.629 218.346 183.872 219.73L184.348 222.519C185.288 222.519 186.228 222.442 187.179 222.42L186.692 219.641C186.405 218.036 186.139 216.619 185.896 215.567C184.889 211.287 185.065 206.814 186.405 202.627C187.738 198.544 189.364 194.564 191.271 190.716C192.477 188.147 193.704 185.48 194.932 182.535C195.054 182.269 195.164 181.982 195.275 181.716C195.397 181.427 195.417 181.106 195.333 180.804C195.248 180.503 195.064 180.239 194.81 180.055H194.744ZM194.81 180.055C194.568 179.874 194.273 179.777 193.97 179.779C193.666 179.794 193.375 179.906 193.14 180.1C192.399 180.709 191.636 181.351 190.862 182.037C184.801 187.361 177.38 194.9 170.135 202.627L160.624 213.01L158.412 215.49L152.373 222.287L149.575 225.486L153.756 224.955L156.532 221.8C161.675 215.977 167.824 209.18 173.984 202.627C179.636 196.66 185.31 190.915 190.276 186.354L188.805 189.542C186.698 193.748 184.951 198.125 183.584 202.627C182.294 207.052 182.176 211.736 183.242 216.221C183.452 217.117 183.695 218.346 183.938 219.73L186.759 219.641C186.471 218.036 186.206 216.619 185.962 215.567C184.955 211.287 185.131 206.814 186.471 202.627C187.804 198.544 189.43 194.563 191.338 190.716C192.543 188.147 193.771 185.48 194.998 182.535C195.12 182.269 195.231 181.982 195.341 181.716C195.463 181.427 195.483 181.106 195.399 180.804C195.315 180.502 195.131 180.238 194.877 180.055" fill="white"/>
<path d="M230.889 154.473L228.212 157.03C218.258 166.572 204.599 179.657 193.926 179.734C189.27 179.734 186.018 174.842 181.517 168.067L176.385 160.639C174.98 158.735 170.645 153.488 168.488 150.942C168.694 150.459 168.915 149.983 169.152 149.514C170.302 147.333 171.051 144.964 171.364 142.518C172.47 142.518 174.295 142.673 176.308 142.805C184.16 143.281 198.007 144.167 211.7 144.012C213.093 144.012 214.498 144.012 215.88 143.946C216.832 143.946 217.761 143.89 218.701 143.846C218.563 143.455 218.563 143.029 218.701 142.639L219.287 141.023C218.292 141.079 217.285 141.101 216.268 141.145L208.835 141.245H205.396H204.057C193.119 141.09 182.8 140.436 176.407 140.049L171.74 139.783C169.793 139.706 169.141 139.783 168.886 140.215C168.749 140.454 168.677 140.725 168.676 141.001C168.676 141.222 168.621 141.444 168.588 141.643C168.341 143.972 167.638 146.229 166.52 148.285C166.365 148.606 166.199 148.96 166.033 149.392L165.458 150.61C165.458 150.665 165.458 150.72 165.402 150.776C165.334 151.004 165.323 151.247 165.372 151.48C165.42 151.714 165.525 151.932 165.679 152.115C166.044 152.514 166.52 153.089 167.073 153.753C169.351 156.455 172.835 160.694 174.029 162.333C175.921 164.89 177.602 167.403 179.084 169.65C183.043 175.528 186.361 180.388 190.785 181.993C191.782 182.351 192.834 182.531 193.893 182.524H193.971H194.9C206.457 181.793 219.574 169.24 230.159 159.078L234.583 154.916C233.361 154.879 232.144 154.742 230.944 154.506" fill="white"/>
<path d="M228.755 144.411L230.613 144.466C231.243 144.521 231.84 144.532 232.205 144.521C232.195 144.385 232.195 144.248 232.205 144.112L228.755 144.411ZM275.66 107.327C275.288 106.839 274.797 106.454 274.233 106.21C273.669 105.965 273.053 105.87 272.442 105.932L231.52 110.083C230.288 110.226 229.119 110.706 228.143 111.472C227.168 112.238 226.422 113.259 225.99 114.422L220.803 128.736L220.46 129.688L217.33 138.322L216.301 141.189L216.102 141.721C215.839 142.446 215.76 143.226 215.87 143.99C215.987 144.795 216.306 145.557 216.799 146.204C216.876 146.281 216.932 146.37 216.998 146.436C217.435 146.937 217.973 147.339 218.578 147.614C219.183 147.889 219.84 148.031 220.504 148.03H220.803C220.762 147.626 220.811 147.218 220.946 146.835C220.96 146.785 220.979 146.737 221.002 146.691C221.214 146.144 221.603 145.684 222.108 145.385C222.343 145.217 222.595 145.076 222.86 144.964L222.229 145.019L220.67 145.174C220.351 145.208 220.028 145.159 219.733 145.031C219.439 144.903 219.182 144.701 218.989 144.444C218.852 144.262 218.744 144.061 218.668 143.846C218.531 143.456 218.531 143.03 218.668 142.639L219.254 141.023L222.849 131.06L228.534 115.33C228.787 114.658 229.22 114.07 229.786 113.628C230.352 113.186 231.028 112.91 231.741 112.828L243.907 111.6L272.663 108.688H272.74C272.863 108.686 272.984 108.712 273.093 108.766C273.203 108.82 273.299 108.9 273.371 108.998C273.458 109.107 273.516 109.236 273.539 109.374C273.562 109.511 273.55 109.652 273.504 109.784L272.829 111.6L262.775 138.92C262.524 139.592 262.089 140.179 261.52 140.616C260.951 141.053 260.271 141.32 259.557 141.388L251.594 142.163C251.606 143.108 251.543 144.052 251.406 144.986L259.844 144.178C261.075 144.049 262.244 143.579 263.221 142.82C264.199 142.061 264.944 141.043 265.374 139.883L275.771 111.6L276.081 110.747C276.297 110.174 276.362 109.555 276.269 108.95C276.176 108.345 275.928 107.774 275.55 107.293L275.66 107.327ZM228.755 144.411L230.613 144.466C231.243 144.521 231.84 144.532 232.205 144.521C232.195 144.385 232.195 144.248 232.205 144.112L228.755 144.411Z" fill="white"/>
<path d="M239.251 111.644C238.969 111.645 238.694 111.562 238.461 111.404C238.228 111.246 238.048 111.021 237.946 110.758C235.251 103.91 231.746 97.4105 227.505 91.397C225.094 87.988 222.085 84.301 218.004 82.796C215.293 81.974 212.461 81.6258 209.632 81.767C208.161 81.767 206.646 81.767 205.153 81.601C203.469 81.5392 201.836 81.006 200.441 80.062C197.709 77.97 197.576 74.726 197.51 72.623C197.503 72.439 197.532 72.255 197.596 72.082C197.66 71.9092 197.757 71.7508 197.883 71.616C198.008 71.481 198.159 71.373 198.327 71.296C198.494 71.2196 198.675 71.1775 198.859 71.172C199.589 71.106 200.275 71.072 200.297 71.847C200.375 74.127 200.596 76.651 202.144 77.836C203.137 78.4638 204.287 78.8012 205.462 78.81C206.845 78.932 208.305 78.954 209.72 78.965C212.866 78.8288 216.012 79.233 219.022 80.16C223.822 81.931 227.195 86.027 229.839 89.78C234.208 95.9686 237.821 102.658 240.6 109.706C240.682 109.918 240.712 110.146 240.687 110.372C240.661 110.598 240.581 110.814 240.454 111.002C240.327 111.191 240.156 111.345 239.956 111.453C239.756 111.561 239.533 111.618 239.306 111.621L239.251 111.644ZM221.521 133.352C221.448 134.27 221.156 135.158 220.669 135.94C220.182 136.722 219.515 137.376 218.723 137.846C218.281 138.095 217.79 138.245 217.284 138.287C216.778 138.329 216.269 138.262 215.792 138.09C215.792 138.09 215.792 138.178 215.715 138.223C215.165 139.15 214.326 139.869 213.326 140.27C212.326 140.671 211.221 140.729 210.185 140.436C210.085 140.415 209.989 140.382 209.897 140.337C209.521 140.807 209.045 141.187 208.504 141.45C207.962 141.713 207.369 141.85 206.767 141.853C205.677 141.904 204.599 141.614 203.681 141.023C203.188 140.72 202.741 140.347 202.354 139.916C201.477 138.903 200.781 137.746 200.297 136.496L200.043 135.92C199.617 134.715 198.989 133.592 198.185 132.599C196.825 131.459 195.214 130.658 193.484 130.263C184.636 128.99 181.672 131.37 177.668 134.614C174.107 137.514 169.661 141.123 159.773 142.507C159.209 142.591 158.64 142.631 158.07 142.628C150.803 142.628 144.51 136.097 141.314 129.178C138.272 122.537 135.474 111.533 133.882 103.43C131.393 90.755 134.589 81.058 142.918 76.143C144.632 75.136 147.895 74.538 151.655 73.863C155.847 73.088 161.609 72.059 162.66 70.542C166.07 65.4771 168.021 59.5717 168.3 53.472L155.028 54.037C154.658 54.049 154.297 53.914 154.026 53.661C153.754 53.4083 153.593 53.058 153.58 52.687C153.58 52.111 152.971 38.684 153.867 34.665C155.858 25.72 159.685 22.488 163.699 21.149C160.326 19.489 157.174 20.429 153.922 22.311C153.679 22.4477 153.4 22.5079 153.122 22.484C152.844 22.46 152.58 22.354 152.363 22.178C152.139 22.0062 151.974 21.7689 151.891 21.499C151.808 21.229 151.81 20.94 151.898 20.672C154.442 12.469 160.37 4.68702 169.108 1.90902C178.166 -0.957984 187.567 -0.581985 194.9 2.95002C199.582 5.05904 203.598 8.40857 206.513 12.636C209.554 17.308 210.616 24.204 209.046 29.019C208.932 29.3708 208.684 29.6634 208.356 29.833C208.111 29.9597 207.834 30.0106 207.559 29.9793C207.285 29.9479 207.027 29.8357 206.817 29.657C206.677 29.538 206.563 29.394 206.479 29.231C206.395 29.0683 206.344 28.8905 206.329 28.708C206.314 28.525 206.335 28.342 206.391 28.167C207.685 24.138 206.734 18.127 204.179 14.164C201.541 10.3699 197.921 7.36572 193.705 5.47402C187.003 2.25302 178.354 1.93202 169.959 4.58802C166.664 5.61202 163.61 7.29302 160.981 9.53102C158.352 11.7689 156.202 14.5157 154.663 17.606C156.993 16.9751 159.445 16.9369 161.794 17.495C164.143 18.0539 166.315 19.1918 168.112 20.805C168.308 20.9872 168.448 21.2218 168.515 21.481C168.582 21.74 168.574 22.013 168.491 22.268C168.408 22.523 168.256 22.748 168.049 22.919C167.843 23.0895 167.592 23.1974 167.327 23.23C163.334 23.728 158.877 25.123 156.61 35.263C156.002 37.997 156.179 46.676 156.322 51.182L169.594 50.617C169.777 50.6079 169.96 50.635 170.133 50.697C170.305 50.759 170.464 50.854 170.6 50.978C170.735 51.1015 170.845 51.2503 170.923 51.416C171.001 51.582 171.045 51.7618 171.054 51.945C171.084 59.1476 168.932 66.1905 164.883 72.147C163.135 74.649 157.76 75.623 152.086 76.652C148.868 77.239 145.55 77.836 144.267 78.589C135.021 84.069 134.954 94.84 136.525 102.943C138.018 110.526 140.816 121.651 143.769 128.06C146.722 134.469 152.728 140.724 159.253 139.794C168.367 138.521 172.293 135.311 175.777 132.488C179.825 129.167 183.641 126.079 193.86 127.562C193.936 127.57 194.01 127.589 194.081 127.618C196.333 128.129 198.414 129.216 200.12 130.772C200.486 131.17 200.816 131.6 201.104 132.057C201.657 132.964 202.134 133.916 202.531 134.902L202.775 135.466C203.216 136.772 204.022 137.924 205.097 138.787C205.476 139.059 205.935 139.195 206.401 139.173C206.867 139.151 207.312 138.972 207.663 138.665C207.88 138.285 207.98 137.85 207.951 137.414C207.626 135.357 207.042 133.348 206.214 131.437C206.104 131.184 205.99 130.933 205.871 130.684C205.701 130.355 205.669 129.972 205.781 129.619C205.893 129.266 206.14 128.972 206.469 128.802C206.798 128.632 207.18 128.599 207.532 128.711C207.884 128.823 208.179 129.071 208.349 129.4C208.647 129.942 208.946 130.507 209.2 131.094C209.904 132.684 210.388 134.364 210.638 136.086C210.692 136.453 210.725 136.822 210.738 137.193C210.738 137.326 210.738 137.437 210.793 137.547C210.848 137.657 210.793 137.824 210.848 137.901C210.903 137.978 210.848 137.901 210.992 137.901C211.421 137.982 211.864 137.928 212.26 137.745C212.657 137.563 212.987 137.261 213.204 136.883C213.538 136.309 213.71 135.655 213.702 134.99C213.442 133.508 212.965 132.072 212.286 130.728C212.254 130.641 212.217 130.556 212.176 130.474L211.755 129.754C211.59 129.434 211.554 129.063 211.654 128.717C211.754 128.37 211.983 128.076 212.294 127.894C212.605 127.713 212.973 127.657 213.324 127.739C213.675 127.822 213.98 128.036 214.177 128.337C214.332 128.603 214.476 128.868 214.62 129.145C214.764 129.422 215.073 129.953 215.261 130.374C215.677 131.161 215.999 131.993 216.224 132.854C216.38 133.481 216.469 134.123 216.489 134.769C216.523 135.06 216.59 135.345 216.688 135.621C216.889 135.62 217.086 135.571 217.263 135.477C217.654 135.223 217.98 134.88 218.212 134.476C218.445 134.072 218.578 133.618 218.601 133.152C218.676 132.077 218.494 131 218.071 130.009C218.05 129.923 218.024 129.837 217.993 129.754C217.21 127.607 215.924 125.679 214.244 124.131C212.794 122.905 211.178 121.892 209.444 121.12C207.657 120.263 205.808 119.542 203.914 118.961C196.36 116.902 182.9 117.765 174.284 119.758C169.805 120.81 166.177 120.323 163.511 118.33C158.8 114.799 158.413 107.559 158.169 103.231C158.169 102.434 158.092 101.736 158.037 101.194C158.019 100.839 158.137 100.491 158.367 100.22C158.596 99.9489 158.92 99.7752 159.273 99.734C159.626 99.694 159.981 99.791 160.266 100.005C160.55 100.219 160.741 100.534 160.802 100.884C160.868 101.471 160.912 102.223 160.957 103.098C161.178 106.939 161.532 113.36 165.193 116.116C167.161 117.588 170.004 117.909 173.653 117.057C182.601 114.965 196.658 114.101 204.622 116.282C206.69 116.909 208.708 117.69 210.66 118.618C212.663 119.455 214.536 120.573 216.224 121.939C218.237 123.787 219.777 126.091 220.714 128.658C220.869 129.057 220.99 129.433 221.112 129.765C221.481 130.911 221.613 132.12 221.499 133.319" fill="white"/>
<path d="M211.59 44.2289L211.379 42.2809C211.039 37.7479 210.333 33.2499 209.267 28.8309C208.925 27.5396 208.481 26.2773 207.94 25.0559C205.805 20.2739 202.211 17.0189 195.696 16.8869C187.822 16.7319 182.369 18.3809 179.04 21.9679C175.434 25.8419 175.125 31.2449 175.434 35.8489C173.902 36.1889 172.527 37.0311 171.528 38.2419C170.528 39.4529 169.961 40.9631 169.917 42.5329C169.872 44.1029 170.353 45.6429 171.282 46.9089C172.211 48.1742 173.536 49.0931 175.047 49.5199C175.213 50.4719 175.423 51.4129 175.667 52.2989C176.919 57.1269 179.561 61.4809 183.265 64.8189C183.995 65.4589 184.771 66.0429 185.587 66.5679C185.975 66.2689 186.373 65.9479 186.693 65.6159C187.013 65.2839 187.401 64.9519 187.722 64.6089C186.905 64.1349 186.132 63.5905 185.41 62.9819C181.663 59.7439 179.079 55.3659 178.056 50.5169C178.056 50.3289 177.978 50.1299 177.934 49.9409C177.807 49.3477 177.703 48.7495 177.624 48.1479C177.583 47.8439 177.442 47.5619 177.224 47.3449C177.006 47.1287 176.723 46.9905 176.419 46.9519C175.33 46.8407 174.326 46.3135 173.616 45.4802C172.906 44.6469 172.545 43.5718 172.608 42.4789C172.67 41.3857 173.152 40.3586 173.953 39.6119C174.753 38.8652 175.811 38.4567 176.905 38.4719C177.098 38.4679 177.288 38.4259 177.465 38.3479C177.642 38.2699 177.801 38.1579 177.934 38.0179C178.066 37.8673 178.166 37.6919 178.229 37.5019C178.292 37.3119 178.315 37.1109 178.299 36.9109C177.89 32.6489 177.845 27.2799 181.053 23.8379C183.652 21.0589 188.22 19.6419 194.657 19.6419H195.608C202 19.7749 204.931 23.6599 206.524 29.4169C207.551 33.7325 208.235 38.1225 208.57 42.5459L208.78 44.4939C208.902 45.6009 208.968 46.7739 208.99 47.8699C209.226 52.2249 208.302 56.5639 206.314 60.4449C206.069 61.879 205.599 63.2652 204.92 64.5519C204.256 65.8569 203.386 67.0449 202.343 68.0719C203.968 67.2769 205.422 66.1709 206.624 64.8169C207.543 63.782 208.331 62.6369 208.968 61.4079C211.346 56.9139 212.286 50.8689 211.556 44.1939L211.59 44.2289ZM190.786 38.6939C190.788 39.1609 190.651 39.6179 190.394 40.0069C190.136 40.3956 189.769 40.6991 189.339 40.8792C188.909 41.0593 188.435 41.1079 187.977 41.0189C187.519 40.9294 187.098 40.7055 186.768 40.3759C186.437 40.0464 186.212 39.6263 186.12 39.1687C186.028 38.7111 186.074 38.2365 186.252 37.8049C186.43 37.3729 186.732 37.0049 187.12 36.7449C187.507 36.4852 187.963 36.3466 188.43 36.3469C189.053 36.3469 189.65 36.5939 190.092 37.0339C190.533 37.4739 190.783 38.0707 190.786 38.6939Z" fill="white"/>
<path d="M207.375 38.6941C207.377 39.1611 207.24 39.6182 206.983 40.0075C206.725 40.3968 206.357 40.7008 205.926 40.8811C205.495 41.0611 205.021 41.1088 204.563 41.0181C204.105 40.9271 203.684 40.7023 203.354 40.3721C203.024 40.0421 202.799 39.6201 202.708 39.1621C202.618 38.7036 202.665 38.2286 202.845 37.7972C203.025 37.3659 203.329 36.9976 203.718 36.7391C204.171 36.4378 204.714 36.3029 205.255 36.3572C205.796 36.4116 206.301 36.6518 206.685 37.0371C207.124 37.4767 207.372 38.0718 207.375 38.6931V38.6941ZM210.362 50.8701C210.063 49.8141 209.612 48.8072 209.023 47.8811C206.9 44.4711 203.228 42.4901 200.408 42.4901C197.126 42.4931 193.98 43.7991 191.659 46.1211C189.338 48.4442 188.033 51.5932 188.031 54.8771C188.035 55.1254 188.101 55.3688 188.223 55.5851C188.345 55.8011 188.518 55.9841 188.728 56.1171C188.839 56.1991 188.962 56.2626 189.093 56.3051C188.504 58.8103 187.242 61.1071 185.443 62.9471C185.123 63.2801 184.783 63.5951 184.426 63.8881C184.055 64.208 183.668 64.5075 183.264 64.7851C182.253 65.4491 181.165 65.9881 180.024 66.3901C179.811 66.465 179.619 66.5894 179.463 66.753C179.307 66.9165 179.193 67.1146 179.128 67.3311C179.064 67.5456 179.053 67.7724 179.096 67.9921C179.139 68.2115 179.233 68.4176 179.371 68.5931C180.959 70.5701 182.97 72.1651 185.256 73.2611C187.541 74.357 190.043 74.926 192.577 74.9261C194.39 74.9293 196.191 74.6337 197.908 74.0511C200.698 73.1021 203.19 71.4331 205.131 69.2141C207.073 66.9943 208.396 64.3025 208.968 61.4091C209.283 59.9332 209.387 58.4202 209.278 56.9151C209.259 56.4325 209.207 55.9518 209.123 55.4761C209.306 55.5121 209.494 55.5121 209.676 55.4761C209.8 55.4271 209.919 55.3641 210.03 55.2881C210.249 55.1581 210.431 54.9731 210.559 54.7521C210.687 54.5311 210.756 54.2811 210.76 54.0261C210.761 52.9669 210.615 51.9126 210.328 50.8931L210.362 50.8711V50.8701ZM192.809 49.0001C193.713 47.851 194.868 46.9235 196.185 46.2881C197.502 45.6531 198.946 45.3271 200.408 45.3361C201.62 45.4581 202.789 45.8529 203.827 46.4911C204.865 47.1291 205.746 47.9951 206.402 49.0221C207.055 49.9531 207.521 51.0018 207.774 52.1101C206.07 51.3351 203.349 49.9621 201.082 48.7231C200.88 48.6146 200.654 48.5579 200.424 48.5581C200.195 48.5583 199.969 48.615 199.766 48.7231C197.864 49.7191 195.773 50.7711 193.96 51.6571L192.256 52.4651C191.792 52.6751 191.371 52.8751 191.007 53.0181C191.31 51.5717 191.938 50.2129 192.842 49.0441L192.809 49.0001ZM202.376 68.1401C199.79 70.719 196.296 72.181 192.644 72.2121C188.993 72.2431 185.475 70.8411 182.844 68.3061C183.814 67.8331 184.734 67.2617 185.587 66.6011C185.974 66.3021 186.372 65.9811 186.693 65.6491C187.014 65.3171 187.39 64.9851 187.711 64.6421C190.026 62.1331 191.536 58.9861 192.046 55.6091C193.694 54.9231 196.249 53.6831 200.352 51.5571C202.852 52.8971 204.666 53.7711 205.982 54.4241C206.543 56.4038 206.653 58.4843 206.303 60.5121C206.056 61.9491 205.586 63.3386 204.909 64.6301C204.242 65.9293 203.372 67.1138 202.332 68.1391" fill="white"/>
<path d="M199.878 58.4421C199.105 58.4391 198.365 58.1298 197.82 57.5821C197.275 57.0341 196.969 56.2931 196.969 55.5201C196.969 54.8781 197.301 54.3581 197.942 54.3581C198.583 54.3581 198.849 54.8671 198.849 55.4651C198.871 55.5764 198.915 55.682 198.98 55.7751C199.045 55.8678 199.128 55.9459 199.225 56.0043C199.322 56.0627 199.43 56.1001 199.543 56.1141C199.656 56.1281 199.77 56.1181 199.878 56.0851C200.035 56.0776 200.184 56.0125 200.296 55.9022C200.408 55.7918 200.476 55.6441 200.486 55.4871C200.486 55.2317 200.433 54.979 200.331 54.7451C200.136 54.4483 199.888 54.1895 199.601 53.9811C199.87 53.9011 200.108 53.7431 200.287 53.5271C200.434 53.2762 200.503 52.9874 200.486 52.6971C200.486 52.3651 200.11 51.5901 199.38 52.0001C198.827 52.3321 198.717 51.5681 198.717 50.8931C198.717 50.5991 198.833 50.3181 199.041 50.1101C199.249 49.9021 199.529 49.7861 199.823 49.7861C200.597 49.7861 201.34 50.0941 201.887 50.6421C202.158 50.9134 202.373 51.2356 202.52 51.5901C202.667 51.9445 202.742 52.3245 202.742 52.7081C202.51 53.1365 202.388 53.616 202.388 54.1031C202.388 54.5903 202.51 55.0697 202.742 55.4981C202.742 55.882 202.667 56.2621 202.52 56.6167C202.373 56.9714 202.158 57.2937 201.887 57.5651C201.34 58.1131 200.597 58.4211 199.823 58.4211L199.878 58.4421ZM208.57 101.925C208.57 101.925 215.693 108.312 223.933 124.064L208.57 101.925Z" fill="white"/>
<path d="M223.964 125.514C223.709 125.512 223.459 125.441 223.241 125.309C223.023 125.176 222.845 124.987 222.725 124.762C214.729 109.419 207.739 103.031 207.673 102.965C207.397 102.717 207.231 102.37 207.211 101.999C207.192 101.628 207.32 101.265 207.568 100.989C207.816 100.714 208.163 100.548 208.533 100.529C208.903 100.509 209.266 100.637 209.542 100.884C209.84 101.15 216.941 107.625 225.203 123.466C225.312 123.68 225.365 123.918 225.357 124.158C225.349 124.398 225.279 124.631 225.155 124.837C225.031 125.042 224.856 125.212 224.648 125.331C224.439 125.449 224.204 125.512 223.964 125.514ZM186.637 219.597L183.828 219.685C174.371 220.04 165.18 220.737 156.553 221.744H156.421L153.634 224.899L156.874 224.512C165.545 223.504 174.792 222.796 184.303 222.464L187.123 222.364L186.637 219.586V219.597ZM300.279 241.471C282.118 228.674 251.614 222.132 219.717 220.128L216.952 219.962C206.821 219.409 196.58 219.309 186.615 219.597L183.805 219.685C174.349 220.04 165.158 220.737 156.531 221.744H156.399L152.229 222.231C140.063 223.737 127.167 225.652 114.736 228.342L111.694 229.006C76.954 236.877 46.904 250.913 50.101 278.245C50.4367 281.295 51.2194 284.279 52.424 287.101C52.8917 288.189 53.4275 289.246 54.028 290.267C54.593 290.343 55.162 290.379 55.731 290.377H56.085C56.5144 290.372 56.943 290.339 57.368 290.278C56.7797 289.413 56.2476 288.511 55.775 287.577C54.224 284.561 53.242 281.285 52.877 277.913C49.957 252.829 78.061 239.578 111.075 231.984L114.05 231.309C125.718 228.763 137.884 226.881 149.442 225.42L153.623 224.888L156.863 224.501C165.534 223.493 174.78 222.785 184.292 222.453L187.112 222.353L197.664 222.198C204.067 222.198 210.515 222.364 216.919 222.719L219.695 222.885C250.42 224.8 279.829 230.988 297.668 243.054C291.519 254.6 281.974 264.087 270.682 271.835C269.864 272.411 269.012 272.942 268.16 273.529C233.531 296.211 184.458 303.816 166.408 305.908C146.002 308.288 122.566 310.215 102.26 308.554C101.32 308.488 100.413 308.399 99.484 308.311C99.457 309.256 99.179 310.177 98.677 310.978C99.6669 311.089 100.659 311.181 101.652 311.255C107.238 311.731 113.055 311.941 118.961 311.941C134.916 311.799 150.85 310.75 166.685 308.798C182.247 306.982 212.596 302.222 241.108 290.732C251.309 286.717 261.077 281.681 270.263 275.699L272.596 274.105C285.437 265.149 294.86 254.843 300.744 243.286C300.896 242.985 300.935 242.64 300.854 242.313C300.773 241.986 300.577 241.699 300.302 241.504L300.28 241.471H300.279ZM67.719 300.041C67.7039 300.277 67.7463 300.513 67.8426 300.729C67.9389 300.945 68.0863 301.135 68.272 301.281C72.032 304.104 76.478 305.056 81.29 305.167C76.5735 303.909 72.0386 302.048 67.797 299.632C67.797 299.754 67.742 299.864 67.72 299.986V300.041H67.719ZM186.637 219.541L183.828 219.63C174.371 219.984 165.18 220.682 156.553 221.689H156.421L153.634 224.844L156.874 224.456C165.545 223.449 174.792 222.741 184.303 222.409L187.123 222.309L186.637 219.53" fill="white"/>
<path d="M184.559 284.831C184.211 284.82 183.881 284.681 183.63 284.44C183.38 284.199 183.228 283.873 183.203 283.526C183.178 283.18 183.283 282.836 183.496 282.562C183.709 282.288 184.017 282.102 184.36 282.042C241.075 273.961 298.389 241.537 298.964 241.205C299.124 241.095 299.306 241.019 299.497 240.982C299.688 240.945 299.885 240.948 300.075 240.992C300.265 241.035 300.444 241.118 300.6 241.234C300.756 241.351 300.886 241.498 300.983 241.668C301.079 241.838 301.139 242.025 301.159 242.219C301.179 242.413 301.159 242.609 301.099 242.795C301.039 242.981 300.941 243.152 300.811 243.297C300.682 243.442 300.523 243.559 300.346 243.641C299.771 243.973 241.982 276.651 184.758 284.809H184.559V284.831ZM136.779 290.079C130.048 290.123 123.325 289.597 116.683 288.507C116.318 288.442 115.993 288.235 115.78 287.931C115.567 287.627 115.484 287.251 115.549 286.885C115.614 286.52 115.821 286.195 116.125 285.982C116.428 285.769 116.804 285.686 117.169 285.75C141.214 289.912 168.731 284.3 169.008 284.234C169.358 284.19 169.712 284.281 169.999 284.487C170.286 284.693 170.485 285 170.556 285.346C170.627 285.692 170.565 286.052 170.383 286.355C170.201 286.658 169.911 286.88 169.572 286.979C158.761 289.002 147.789 290.039 136.79 290.079H136.779ZM30.603 277.182C30.1952 277.183 29.7893 277.127 29.397 277.016C29.0405 276.913 28.7395 276.673 28.5601 276.348C28.3806 276.023 28.3374 275.641 28.44 275.284C28.5427 274.928 28.7828 274.627 29.1073 274.447C29.4319 274.267 29.8144 274.224 30.171 274.326C31.343 274.658 32.726 273.562 33.633 272.422C35.58 269.987 36.851 266.234 35.303 263.345C33.755 260.456 29.441 259.393 26.223 259.858C23.4925 260.384 20.8417 261.262 18.337 262.47L15.185 263.777C10.031 265.758 5.85 265.991 2.4 264.496C1.71407 264.284 1.11277 263.86 0.681811 263.285C0.250855 262.711 0.0122451 262.015 0 261.297C0.031 260.927 0.206 260.584 0.487 260.342C0.767992 260.099 1.13345 259.977 1.504 260.002C1.86304 260.03 2.19754 260.195 2.438 260.463C2.679 260.731 2.808 261.081 2.798 261.441C2.99069 261.659 3.23377 261.826 3.506 261.928C6.26 263.124 9.755 262.869 14.179 261.164C15.208 260.777 16.225 260.334 17.232 259.902C19.962 258.595 22.851 257.65 25.826 257.09C30.117 256.471 35.47 257.755 37.76 262.028C40.05 266.301 38.158 271.249 35.824 274.204C35.232 275.063 34.457 275.779 33.554 276.3C32.651 276.821 31.643 277.133 30.604 277.215L30.603 277.182ZM24.487 305.554C22.8209 305.565 21.2027 304.998 19.908 303.949C17.829 302.233 17.01 299.632 16.291 297.307L15.893 296.067C15.44 294.739 14.146 291.639 11.812 291.352C11.621 291.342 11.433 291.293 11.262 291.208C11.091 291.123 10.938 291.004 10.814 290.858C10.6901 290.712 10.5972 290.542 10.5412 290.359C10.4851 290.175 10.467 289.983 10.488 289.792C10.5094 289.602 10.5694 289.418 10.6643 289.251C10.7592 289.085 10.8871 288.94 11.04 288.824C11.193 288.709 11.368 288.626 11.554 288.581C11.74 288.536 11.933 288.529 12.122 288.562C14.931 288.883 17.221 291.23 18.548 295.204L18.957 296.499C19.621 298.613 20.24 300.595 21.689 301.79C22.4299 302.387 23.3435 302.728 24.294 302.764C25.244 302.8 26.181 302.528 26.965 301.99C27.7118 301.423 28.2501 300.625 28.496 299.72C28.7419 298.815 28.6821 297.854 28.326 296.986C27.9383 296.163 27.3145 295.473 26.534 295.005C26.3605 294.918 26.2069 294.795 26.083 294.645C25.959 294.495 25.868 294.322 25.815 294.135C25.7619 293.948 25.7479 293.752 25.7741 293.56C25.8002 293.367 25.8659 293.182 25.967 293.016C26.0681 292.85 26.2026 292.707 26.362 292.596C26.521 292.484 26.702 292.408 26.892 292.37C27.0826 292.332 27.279 292.334 27.4687 292.376C27.6584 292.418 27.8373 292.499 27.994 292.614C29.2488 293.376 30.2495 294.493 30.87 295.824C31.3468 296.882 31.549 298.043 31.458 299.2C31.367 300.357 30.985 301.473 30.349 302.443C29.7128 303.413 28.8419 304.207 27.817 304.751C26.7927 305.295 25.6476 305.571 24.488 305.554H24.487Z" fill="white"/>
<path d="M35.2249 283.946C34.4569 283.951 33.6979 283.773 33.0129 283.426C32.683 283.257 32.4337 282.963 32.3198 282.611C32.2058 282.258 32.2364 281.874 32.4049 281.544C32.5739 281.213 32.8669 280.964 33.2189 280.85C33.3934 280.793 33.5775 280.771 33.7604 280.786C33.9434 280.8 34.1217 280.851 34.2849 280.935C35.5019 281.555 37.1829 280.702 38.1229 279.518C38.5969 278.966 38.9309 278.307 39.0969 277.598C39.263 276.889 39.2551 276.15 39.0739 275.444C38.8869 274.874 38.5048 274.388 37.9949 274.072C37.4849 273.756 36.8799 273.63 36.2859 273.717C36.1099 273.768 35.9249 273.783 35.7419 273.762C35.5597 273.741 35.3833 273.684 35.2229 273.595C35.0629 273.505 34.9219 273.385 34.8079 273.241C34.6941 273.096 34.6098 272.931 34.5599 272.754C34.4612 272.396 34.5066 272.014 34.6864 271.689C34.8663 271.364 35.1662 271.122 35.5219 271.016C36.8094 270.733 38.1561 270.937 39.3019 271.589C40.4479 272.241 41.3119 273.295 41.7269 274.548C42.0597 275.694 42.1058 276.904 41.8609 278.072C41.6159 279.24 41.0879 280.33 40.3229 281.245C39.7149 282.041 38.9409 282.695 38.0549 283.162C37.1689 283.629 36.1919 283.896 35.1909 283.946H35.2249ZM71.8019 340.236C70.4242 340.254 69.0712 339.869 67.9089 339.129C65.3649 337.435 64.3149 334.502 63.5619 331.591L62.4559 326.554C61.7859 327.169 60.9889 327.63 60.1219 327.904C58.743 328.265 57.2926 328.25 55.9214 327.861C54.5502 327.471 53.3084 326.722 52.3249 325.69C50.5031 323.766 49.341 321.312 49.0069 318.683C48.8299 317.576 48.7639 316.469 48.6859 315.451C48.6415 313.989 48.4488 312.534 48.1109 311.111C47.5799 309.229 46.1309 307.159 44.1629 307.082C43.9799 307.075 43.7999 307.032 43.6339 306.955C43.4679 306.878 43.3179 306.769 43.1939 306.635C43.0697 306.5 42.9732 306.342 42.9099 306.17C42.8469 305.998 42.818 305.815 42.8249 305.632C42.8259 305.447 42.8651 305.263 42.9399 305.094C43.0148 304.925 43.1233 304.773 43.2589 304.647C43.3947 304.521 43.5551 304.425 43.7299 304.364C43.9045 304.303 44.0896 304.279 44.2739 304.292C47.6579 304.425 49.9919 307.436 50.8109 310.37C51.2031 311.973 51.4257 313.612 51.4749 315.262L51.7739 318.24C52.0228 320.276 52.9005 322.184 54.2849 323.698C54.9159 324.361 55.7099 324.846 56.5869 325.104C57.4639 325.362 58.3949 325.385 59.2839 325.17C59.9507 324.956 60.5373 324.545 60.9669 323.992C61.3969 323.439 61.6509 322.77 61.6949 322.07C61.6949 321.805 61.6169 321.539 61.5839 321.273C61.5279 320.917 61.6114 320.553 61.8169 320.257C61.9698 320.035 62.1838 319.862 62.4331 319.76C62.6824 319.657 62.9561 319.629 63.2209 319.679C63.4857 319.73 63.7302 319.856 63.9247 320.042C64.1191 320.229 64.255 320.468 64.3159 320.731C64.4141 321.092 64.4698 321.464 64.4819 321.838C64.9269 324.864 65.5319 327.865 66.2959 330.827C66.9039 333.196 67.7229 335.553 69.4809 336.727C70.3329 337.298 71.3589 337.549 72.3779 337.435C73.3969 337.321 74.3429 336.849 75.0469 336.103C75.7515 335.357 76.169 334.385 76.2252 333.361C76.2814 332.336 75.9727 331.325 75.3539 330.506C75.1999 330.211 75.1553 329.871 75.228 329.546C75.3006 329.221 75.4859 328.932 75.7509 328.731C76.0161 328.53 76.3445 328.429 76.6769 328.448C77.0094 328.467 77.3242 328.604 77.5649 328.834C78.5384 330.195 79.0157 331.848 78.9171 333.518C78.8184 335.188 78.1498 336.774 77.0229 338.011C76.3468 338.716 75.5343 339.276 74.6349 339.657C73.7359 340.038 72.7679 340.231 71.7919 340.225" fill="white"/>
<path d="M102.239 308.621C102.205 309.551 101.998 310.467 101.63 311.322C101.352 312.029 100.98 312.695 100.524 313.303C99.4773 314.598 98.2073 315.697 96.7753 316.547C97.9913 317.618 98.8481 319.037 99.2293 320.612C99.6106 322.187 99.4982 323.842 98.9073 325.351C98.3163 326.86 97.2763 328.15 95.9273 329.047C94.5783 329.943 92.9862 330.402 91.3673 330.362C90.7213 330.359 90.0784 330.274 89.4543 330.107C87.5522 329.543 85.9212 328.304 84.8673 326.623C83.8122 324.942 83.4062 322.933 83.7253 320.974C83.8176 320.638 84.0323 320.348 84.3273 320.161C84.6223 319.975 84.9763 319.907 85.3203 319.969C85.6636 320.031 85.971 320.221 86.1813 320.499C86.3919 320.778 86.4907 321.125 86.4583 321.473C86.2793 322.739 86.5533 324.027 87.2313 325.11C87.9087 326.194 88.9472 327.003 90.1633 327.395C91.4056 327.716 92.7228 327.56 93.8563 326.959C94.9899 326.357 95.858 325.354 96.2903 324.145C96.7223 322.936 96.6873 321.609 96.1923 320.424C95.6971 319.24 94.7778 318.284 93.6143 317.742C93.3768 317.639 93.1728 317.472 93.0253 317.259C92.8777 317.046 92.7925 316.797 92.7793 316.538C92.7653 316.279 92.8243 316.022 92.9483 315.795C93.0723 315.568 93.2573 315.379 93.4823 315.251C95.3041 314.342 96.9337 313.09 98.2823 311.565L98.6583 311.023C99.1615 310.218 99.4401 309.293 99.4653 308.344C99.4691 307.812 99.3519 307.285 99.1223 306.805C98.1383 304.868 95.4173 304.137 90.8163 304.591C87.5188 305.085 84.195 305.385 80.8623 305.488C76.3046 305.485 71.8729 303.992 68.2423 301.237C68.0567 301.091 67.9095 300.901 67.8133 300.685C67.7173 300.469 67.6743 300.233 67.6893 299.997C67.6893 299.875 67.6893 299.765 67.7663 299.632C67.8924 299.311 68.1274 299.044 68.4303 298.879C69.3657 298.237 70.036 297.277 70.3163 296.177C70.5973 295.078 70.4693 293.914 69.9563 292.901C69.3103 291.828 68.3941 290.943 67.2993 290.335C66.205 289.727 64.97 289.417 63.7183 289.437C62.4342 289.437 61.1541 289.582 59.9023 289.868L57.3583 290.256C56.9327 290.312 56.5044 290.345 56.0753 290.355H55.7213C55.152 290.352 54.5833 290.315 54.0183 290.245C48.5763 289.591 43.9093 285.817 39.5633 282.02L39.4523 281.92C39.3148 281.799 39.2027 281.652 39.1223 281.487C38.96 281.154 38.9363 280.77 39.0563 280.42C39.1163 280.247 39.2093 280.087 39.3303 279.95C39.5615 279.683 39.8865 279.514 40.2383 279.479C40.5903 279.444 40.9423 279.545 41.2213 279.761L41.3093 279.817C44.9153 283.027 48.5093 285.961 52.3693 287.079C53.4447 287.405 54.5635 287.566 55.6873 287.555H55.9193C57.0683 287.497 58.2113 287.349 59.3373 287.112C60.7683 286.817 62.2233 286.657 63.6843 286.636C65.4453 286.616 67.1795 287.068 68.7063 287.946C70.2333 288.824 71.4971 290.096 72.3663 291.628C73.0336 292.967 73.2949 294.471 73.1183 295.956C72.9413 297.441 72.3343 298.842 71.3713 299.986C77.8413 303.661 80.9823 302.798 90.4163 301.801C92.6283 301.591 99.1763 300.905 101.476 305.532C101.944 306.476 102.157 307.525 102.095 308.576L102.239 308.621ZM100.724 355.225C100.228 355.223 99.7343 355.159 99.2533 355.036C97.8491 354.598 96.5657 353.84 95.5043 352.822C92.8413 350.527 90.6763 347.708 89.1453 344.542C88.9793 344.21 88.8243 343.867 88.6693 343.524C88.2714 342.552 87.767 341.628 87.1653 340.767C86.8703 340.328 86.4763 339.964 86.0153 339.704C85.5544 339.444 85.0388 339.297 84.5103 339.273C84.1483 339.287 83.7943 339.16 83.5233 338.919C83.3225 338.738 83.1778 338.504 83.1065 338.243C83.0351 337.983 83.0401 337.707 83.1208 337.45C83.2015 337.192 83.3545 336.963 83.5616 336.789C83.7688 336.616 84.0213 336.506 84.2893 336.472C85.2843 336.448 86.2693 336.672 87.1573 337.122C88.0453 337.572 88.808 338.235 89.3773 339.052C90.1123 340.086 90.7282 341.2 91.2133 342.373C91.3597 342.696 91.5108 343.017 91.6663 343.336C93.0333 346.156 94.9603 348.668 97.3293 350.719C98.0723 351.43 98.9643 351.967 99.9393 352.291C100.695 352.483 101.493 352.413 102.203 352.093C102.914 351.773 103.496 351.222 103.853 350.529C104.211 349.836 104.324 349.042 104.173 348.276C104.023 347.511 103.618 346.819 103.024 346.313C102.868 346.2 102.736 346.055 102.639 345.888C102.541 345.721 102.479 345.535 102.455 345.343C102.432 345.151 102.449 344.956 102.505 344.77C102.561 344.584 102.654 344.413 102.78 344.266C102.905 344.118 103.059 343.998 103.233 343.913C103.407 343.828 103.596 343.78 103.789 343.771C103.983 343.763 104.176 343.795 104.356 343.865C104.537 343.935 104.701 344.041 104.838 344.177C105.837 345.005 106.554 346.123 106.888 347.377C107.224 348.631 107.161 349.958 106.709 351.174C106.258 352.391 105.438 353.436 104.365 354.166C103.293 354.896 102.02 355.273 100.724 355.247V355.225ZM217.628 343.668C216.669 343.677 215.724 343.437 214.885 342.97C214.563 342.785 214.327 342.479 214.23 342.12C214.133 341.761 214.182 341.378 214.365 341.055C214.456 340.896 214.577 340.756 214.722 340.644C214.867 340.532 215.032 340.449 215.209 340.4C215.386 340.352 215.57 340.339 215.751 340.362C215.933 340.385 216.109 340.444 216.268 340.535C217.031 340.874 217.888 340.94 218.694 340.72C219.5 340.5 220.206 340.009 220.692 339.328C221.199 338.536 221.504 337.631 221.579 336.692C221.655 335.754 221.498 334.811 221.123 333.948C220.995 333.557 220.742 333.219 220.404 332.985C220.077 333.109 219.714 333.1 219.393 332.959C219.073 332.818 218.821 332.558 218.69 332.233C218.554 331.902 218.548 331.532 218.673 331.198C218.799 330.864 219.045 330.589 219.364 330.428C221.239 329.574 222.982 328.456 224.54 327.107C225.213 326.517 225.753 325.79 226.123 324.975C226.493 324.16 226.685 323.275 226.686 322.38C226.587 321.411 226.171 320.502 225.503 319.794C224.836 319.086 223.953 318.617 222.992 318.462C222.798 318.452 222.608 318.402 222.435 318.316C222.262 318.23 222.107 318.107 221.983 317.958C221.859 317.809 221.766 317.636 221.712 317.449C221.658 317.262 221.643 317.067 221.669 316.874C221.695 316.682 221.759 316.496 221.859 316.33C221.96 316.164 222.094 316.02 222.252 315.908C222.41 315.796 222.591 315.719 222.781 315.68C222.971 315.641 223.167 315.642 223.357 315.683C224.956 315.929 226.427 316.703 227.536 317.883C228.645 319.063 229.327 320.58 229.473 322.192C229.508 323.495 229.259 324.789 228.743 325.986C228.227 327.183 227.458 328.253 226.487 329.122C225.436 330.104 224.27 330.956 223.014 331.657C223.311 332.046 223.553 332.475 223.733 332.93C224.281 334.233 224.496 335.652 224.359 337.059C224.222 338.466 223.737 339.816 222.948 340.989C222.334 341.818 221.536 342.493 220.616 342.96C219.696 343.427 218.681 343.673 217.65 343.679L217.628 343.668ZM201.215 369.981C200.945 369.982 200.681 369.904 200.455 369.756C200.229 369.608 200.051 369.398 199.943 369.15C199.341 367.795 198.367 366.639 197.135 365.817C195.903 364.995 194.461 364.539 192.98 364.504C191.499 364.469 190.039 364.856 188.769 365.62C187.499 366.384 186.472 367.493 185.808 368.818C185.624 369.119 185.333 369.339 184.994 369.436C184.655 369.533 184.292 369.499 183.977 369.34C183.662 369.181 183.419 368.909 183.296 368.578C183.172 368.248 183.177 367.883 183.308 367.556C184.112 365.946 185.312 364.566 186.796 363.548C188.28 362.531 189.998 361.908 191.789 361.74C193.58 361.571 195.385 361.862 197.031 362.586C198.679 363.309 200.116 364.441 201.204 365.874C202.066 364.726 203.146 363.76 204.381 363.03C205.617 362.301 206.984 361.822 208.404 361.621C209.825 361.421 211.271 361.502 212.66 361.862C214.05 362.221 215.354 362.851 216.5 363.715C218.365 361.547 220.879 360.04 223.669 359.418C226.459 358.796 229.375 359.091 231.984 360.261C232.149 360.341 232.298 360.452 232.42 360.588C232.543 360.725 232.638 360.885 232.699 361.058C232.76 361.232 232.786 361.414 232.776 361.598C232.767 361.781 232.721 361.961 232.642 362.127C232.482 362.461 232.196 362.719 231.846 362.842C231.673 362.903 231.49 362.93 231.306 362.92C231.123 362.91 230.944 362.864 230.778 362.785C228.539 361.812 226.031 361.652 223.686 362.333C221.341 363.014 219.308 364.494 217.937 366.516C217.824 366.695 217.671 366.845 217.491 366.956C217.311 367.067 217.109 367.136 216.898 367.158C216.695 367.176 216.491 367.149 216.299 367.078C216.108 367.008 215.934 366.895 215.792 366.748C214.864 365.792 213.714 365.079 212.445 364.672C211.177 364.265 209.828 364.177 208.517 364.414C207.206 364.651 205.974 365.207 204.928 366.033C203.882 366.859 203.055 367.93 202.52 369.15C202.41 369.398 202.23 369.609 202.002 369.756C201.774 369.904 201.509 369.982 201.237 369.981H201.215ZM7.63129 240.829C6.65109 240.829 5.69295 240.538 4.87829 239.993C4.06329 239.448 3.42829 238.674 3.05329 237.767C2.67803 236.861 2.57977 235.864 2.77093 234.902C2.96209 233.94 3.4341 233.057 4.12729 232.363C4.81995 231.67 5.70292 231.197 6.66429 231.006C7.62547 230.814 8.62207 230.912 9.52729 231.288C10.433 231.664 11.207 232.3 11.7515 233.115C12.2959 233.931 12.5864 234.889 12.5863 235.87C12.5864 237.185 12.0645 238.446 11.1353 239.376C10.6754 239.837 10.1293 240.202 9.528 240.452C8.92673 240.701 8.2822 240.829 7.63129 240.829ZM7.63129 233.722C7.20425 233.722 6.78684 233.849 6.43229 234.087C6.16706 234.265 5.94459 234.5 5.78091 234.774C5.61723 235.048 5.5164 235.355 5.4857 235.673C5.455 235.991 5.49519 236.312 5.60336 236.612C5.71154 236.913 5.88501 237.186 6.11129 237.411C6.41406 237.712 6.79928 237.917 7.21829 237.999C7.63729 238.081 8.07129 238.037 8.46529 237.872C8.85923 237.707 9.19529 237.428 9.43096 237.072C9.66664 236.716 9.79134 236.297 9.78929 235.87C9.78948 235.587 9.73374 235.307 9.62529 235.045C9.51627 234.784 9.35728 234.547 9.15729 234.347C8.95729 234.147 8.71929 233.99 8.45729 233.882C8.19588 233.775 7.91583 233.72 7.63329 233.722H7.63129ZM70.6293 215.899C69.6492 215.899 68.6911 215.609 67.8763 215.064C67.0611 214.519 66.4259 213.744 66.0509 212.838C65.6758 211.932 65.5779 210.935 65.7693 209.973C65.9603 209.011 66.4323 208.127 67.1253 207.433C67.8183 206.739 68.7013 206.268 69.6623 206.076C70.6235 205.885 71.6199 205.983 72.5253 206.358C73.2787 206.67 73.9434 207.164 74.4606 207.794C74.9779 208.425 75.3317 209.173 75.4907 209.973C75.6497 210.773 75.609 211.6 75.3723 212.38C75.1355 213.16 74.7099 213.87 74.1333 214.447C73.6734 214.908 73.1271 215.273 72.5259 215.522C71.9246 215.771 71.2801 215.899 70.6293 215.899ZM70.6293 208.793C70.2022 208.794 69.7849 208.921 69.4302 209.159C69.0754 209.397 68.7991 209.734 68.6363 210.129C68.4734 210.524 68.4312 210.958 68.515 211.377C68.5989 211.796 68.805 212.18 69.1073 212.482C69.4101 212.783 69.7953 212.988 70.2143 213.07C70.6333 213.152 71.0673 213.107 71.4613 212.942C71.8553 212.777 72.1913 212.499 72.4273 212.142C72.6629 211.786 72.7875 211.367 72.7853 210.94C72.7853 210.657 72.7293 210.377 72.6213 210.116C72.5133 209.855 72.3533 209.617 72.1533 209.418C71.9533 209.219 71.7153 209.06 71.4533 208.953C71.1916 208.846 70.9112 208.791 70.6283 208.793H70.6293ZM268.913 197.081C267.933 197.081 266.975 196.79 266.16 196.245C265.345 195.7 264.71 194.925 264.335 194.019C263.96 193.113 263.862 192.116 264.053 191.154C264.245 190.192 264.717 189.309 265.41 188.615C266.102 187.92 266.985 187.447 267.946 187.256C268.908 187.064 269.904 187.163 270.809 187.54C271.715 187.915 272.489 188.551 273.033 189.366C273.578 190.182 273.868 191.141 273.868 192.122C273.868 192.773 273.74 193.418 273.491 194.019C273.242 194.62 272.877 195.168 272.417 195.628C271.957 196.088 271.411 196.454 270.809 196.703C270.208 196.952 269.564 197.081 268.913 197.081ZM268.913 189.974C268.486 189.974 268.069 190.101 267.714 190.339C267.359 190.576 267.082 190.914 266.92 191.309C266.799 191.604 266.744 191.923 266.76 192.242C266.776 192.561 266.863 192.872 267.014 193.153C267.165 193.435 267.377 193.679 267.634 193.869C267.89 194.059 268.186 194.189 268.499 194.251C268.918 194.333 269.352 194.289 269.746 194.124C270.14 193.959 270.477 193.68 270.712 193.324C270.947 192.967 271.072 192.549 271.07 192.122C271.07 191.839 271.014 191.558 270.905 191.297C270.797 191.036 270.638 190.799 270.437 190.599C270.237 190.4 270 190.242 269.738 190.134C269.476 190.027 269.196 189.973 268.913 189.974ZM109.162 331.059C108.185 331.057 107.23 330.765 106.418 330.22C105.607 329.675 104.975 328.901 104.602 327.997C104.229 327.093 104.134 326.098 104.326 325.139C104.518 324.18 104.99 323.299 105.681 322.608C106.373 321.917 107.254 321.447 108.213 321.257C109.172 321.067 110.165 321.166 111.068 321.54C111.97 321.915 112.742 322.55 113.284 323.363C113.736 324.04 114.014 324.818 114.094 325.628C114.173 326.438 114.052 327.255 113.74 328.007C113.49 328.608 113.125 329.154 112.665 329.614C112.205 330.074 111.658 330.438 111.057 330.686C110.456 330.934 109.812 331.061 109.162 331.059ZM109.162 323.963C108.738 323.974 108.326 324.11 107.978 324.355C107.631 324.599 107.363 324.941 107.209 325.337C107.054 325.732 107.02 326.165 107.11 326.58C107.178 326.89 107.313 327.181 107.507 327.433C107.7 327.685 107.946 327.891 108.228 328.037C108.51 328.183 108.821 328.265 109.138 328.277C109.455 328.289 109.771 328.231 110.063 328.107C110.453 327.941 110.786 327.662 111.019 327.307C111.253 326.952 111.376 326.536 111.374 326.111C111.357 325.535 111.116 324.989 110.703 324.588C110.291 324.187 109.738 323.963 109.162 323.963ZM284.85 338.166C283.873 338.166 282.917 337.876 282.104 337.332C281.291 336.788 280.657 336.016 280.283 335.111C279.909 334.207 279.811 333.212 280.001 332.252C280.192 331.293 280.663 330.411 281.354 329.719C282.045 329.027 282.927 328.556 283.886 328.365C284.845 328.174 285.839 328.272 286.742 328.646C287.646 329.021 288.418 329.655 288.961 330.469C289.505 331.283 289.794 332.24 289.794 333.218C289.794 333.868 289.666 334.511 289.418 335.111C289.17 335.711 288.805 336.257 288.346 336.717C287.887 337.176 287.342 337.541 286.742 337.789C286.143 338.038 285.5 338.166 284.85 338.166ZM284.85 331.059C284.424 331.059 284.007 331.186 283.652 331.423C283.297 331.66 283.021 331.997 282.858 332.392C282.695 332.786 282.652 333.22 282.735 333.639C282.818 334.058 283.024 334.442 283.325 334.744C283.627 335.046 284.011 335.252 284.43 335.335C284.849 335.418 285.282 335.375 285.676 335.212C286.07 335.049 286.407 334.772 286.644 334.417C286.881 334.062 287.007 333.645 287.007 333.218C286.993 332.65 286.761 332.109 286.36 331.707C285.959 331.305 285.418 331.073 284.85 331.059ZM303.045 270.728C302.065 270.728 301.106 270.437 300.291 269.892C299.476 269.346 298.841 268.571 298.466 267.664C298.091 266.758 297.994 265.76 298.186 264.798C298.378 263.836 298.851 262.952 299.546 262.259C300.24 261.565 301.123 261.094 302.085 260.904C303.047 260.714 304.044 260.814 304.949 261.191C305.854 261.568 306.627 262.205 307.17 263.022C307.713 263.839 308.002 264.799 308 265.78C307.998 267.093 307.475 268.352 306.545 269.28C305.616 270.207 304.357 270.728 303.045 270.728ZM303.045 263.622C302.619 263.623 302.202 263.749 301.848 263.987C301.493 264.224 301.217 264.56 301.053 264.954C300.889 265.349 300.847 265.783 300.93 266.201C301.013 266.619 301.219 267.005 301.52 267.307C301.822 267.609 302.206 267.814 302.624 267.897C303.042 267.98 303.476 267.938 303.871 267.775C304.265 267.611 304.602 267.335 304.838 266.98C305.075 266.625 305.202 266.207 305.202 265.78C305.203 265.496 305.149 265.215 305.041 264.952C304.933 264.69 304.774 264.451 304.573 264.251C304.373 264.05 304.135 263.89 303.873 263.782C303.61 263.674 303.329 263.62 303.045 263.622ZM194.159 33.2251C193.451 31.8411 191.206 30.3141 184.072 33.4911C183.944 33.5321 183.835 33.6201 183.769 33.7381C183.703 33.8561 183.685 33.9941 183.717 34.1251C183.749 34.2561 183.83 34.3701 183.944 34.4431C184.057 34.5166 184.194 34.5441 184.327 34.5201L193.175 34.5861C193.302 34.6002 193.431 34.5891 193.554 34.5533C193.677 34.5175 193.791 34.4578 193.891 34.3776C193.99 34.2974 194.073 34.1983 194.134 34.0859C194.196 33.9736 194.234 33.8503 194.247 33.7231C194.265 33.5532 194.239 33.3815 194.17 33.2251H194.159ZM209.654 33.2921C209.023 31.9081 206.999 30.3701 200.651 33.4911C200.545 33.5484 200.46 33.6386 200.409 33.7481C200.371 33.8301 200.353 33.9203 200.358 34.0107C200.363 34.1011 200.39 34.189 200.437 34.2664C200.484 34.3439 200.549 34.4086 200.627 34.4547C200.705 34.5009 200.793 34.5271 200.883 34.5311L208.78 34.6531C208.942 34.6557 209.102 34.6168 209.245 34.5401C209.388 34.4631 209.509 34.3513 209.596 34.2151C209.683 34.0791 209.734 33.9221 209.745 33.7611C209.756 33.5992 209.724 33.4374 209.654 33.2911V33.2921Z" fill="white"/>
</svg>
